<?xml version="1.0" standalone="no"?>
<!DOCTYPE svg PUBLIC "-//W3C//DTD SVG 20010904//EN"
 "http://www.w3.org/TR/2001/REC-SVG-20010904/DTD/svg10.dtd">
<svg version="1.0" xmlns="http://www.w3.org/2000/svg"
 width="1136.000000pt" height="219.000000pt" viewBox="0 0 1136.000000 219.000000"
 preserveAspectRatio="xMidYMid meet">

<g transform="translate(0.000000,219.000000) scale(0.100000,-0.100000)"
fill="#000000" stroke="none">
<path d="M2795 1821 c-43 -18 -59 -50 -63 -120 -4 -64 -2 -70 25 -101 27 -30
37 -34 91 -38 77 -6 108 2 138 35 21 22 24 35 24 97 -1 74 -7 90 -50 119 -26
18 -128 23 -165 8z"/>
<path d="M7334 1811 c-74 -45 -71 -196 5 -235 17 -9 55 -16 86 -16 70 0 112
21 131 65 30 72 9 162 -45 189 -43 23 -138 21 -177 -3z"/>
<path d="M9924 1811 c-74 -45 -71 -196 5 -235 38 -20 133 -21 171 -1 39 20 60
63 60 120 0 57 -21 100 -60 120 -42 22 -137 20 -176 -4z"/>
<path d="M1412 1283 l3 -538 25 -50 c42 -84 108 -115 248 -115 l82 0 0 95 0
95 -55 0 -55 0 0 525 0 525 -126 0 -125 0 3 -537z"/>
<path d="M6860 1293 c0 -342 4 -542 11 -566 6 -21 26 -56 46 -78 45 -49 107
-69 220 -69 l83 0 0 95 0 94 -57 3 -58 3 -2 480 c-2 264 -3 499 -3 523 l0 42
-120 0 -120 0 0 -527z"/>
<path d="M8500 1200 l0 -620 125 0 125 0 0 300 c0 342 1 348 73 381 51 23 108
24 148 3 55 -28 59 -52 59 -384 l0 -300 126 0 126 0 -4 333 c-4 321 -5 334
-27 392 -33 83 -90 138 -165 160 -70 20 -148 15 -205 -15 -41 -21 -96 -77
-114 -119 -10 -21 -13 23 -15 232 l-2 257 -125 0 -125 0 0 -620z"/>
<path d="M390 1166 l0 -586 125 0 125 0 0 210 0 210 168 0 c103 0 188 5 223
14 114 26 199 100 241 205 31 80 31 232 -1 313 -31 79 -96 148 -173 184 l-63
29 -322 3 -323 3 0 -585z m586 349 c23 -10 39 -26 49 -49 19 -45 19 -137 0
-182 -22 -54 -58 -64 -235 -64 l-150 0 0 155 0 155 150 0 c110 0 160 -4 186
-15z"/>
<path d="M4120 1748 c0 -2 -1 -265 -3 -586 l-2 -582 398 0 397 0 0 110 0 110
-270 0 -270 0 0 130 0 130 233 2 232 3 2 108 2 107 -235 0 -235 0 3 123 3 122
268 3 267 2 0 110 0 110 -395 0 c-217 0 -395 -1 -395 -2z"/>
<path d="M6580 1623 c-63 -20 -90 -59 -90 -129 0 -33 -2 -36 -22 -30 -152 41
-371 -9 -448 -102 -102 -123 -69 -329 67 -413 l35 -22 -47 -18 c-93 -35 -137
-107 -116 -187 12 -44 54 -88 94 -97 37 -10 34 -31 -4 -39 -82 -16 -129 -76
-129 -164 0 -66 30 -109 100 -144 78 -39 154 -52 315 -51 158 0 245 13 325 49
111 50 145 107 145 239 0 100 -11 129 -66 183 -57 55 -100 64 -340 71 -194 5
-219 8 -238 25 -25 23 -27 63 -3 94 17 22 19 22 100 11 62 -9 102 -9 163 -1
140 20 221 68 264 157 34 69 37 180 7 247 -21 46 -83 114 -114 124 -41 13 -1
24 88 24 l94 0 0 90 0 90 -82 -1 c-46 0 -90 -3 -98 -6z m-146 -331 c62 -36 71
-149 16 -203 -54 -54 -170 -51 -228 7 -33 33 -34 37 -30 95 3 47 10 65 30 85
46 46 147 54 212 16z m102 -748 c54 -26 59 -97 9 -130 -38 -25 -180 -38 -291
-26 -81 8 -100 13 -121 34 -28 28 -33 75 -13 113 l13 25 185 0 c149 0 190 -3
218 -16z"/>
<path d="M2080 1469 c-76 -13 -149 -50 -204 -106 l-47 -48 68 -62 c37 -34 73
-62 80 -63 7 0 17 9 23 20 6 11 31 31 56 46 59 35 159 39 202 8 37 -27 62 -80
62 -130 l0 -41 -132 -6 c-176 -7 -252 -30 -317 -95 -86 -87 -97 -229 -26 -332
99 -143 391 -127 465 25 12 25 23 45 25 45 1 0 15 -24 29 -54 37 -75 80 -96
199 -96 l87 0 0 95 0 95 -45 0 -45 0 0 229 c0 258 -8 302 -67 370 -75 88 -240
128 -413 100z m238 -593 c-4 -82 -19 -108 -75 -132 -66 -28 -171 -10 -187 31
-3 9 -6 39 -6 66 0 41 5 54 26 74 31 29 45 32 158 34 l88 1 -4 -74z"/>
<path d="M3577 1464 c-55 -17 -132 -87 -143 -128 -12 -50 -24 -25 -24 49 l0
76 -122 -3 -123 -3 -3 -437 -2 -438 124 0 125 0 3 309 3 310 30 31 c52 55 162
65 210 20 38 -35 45 -100 45 -395 l0 -275 121 0 120 0 -3 343 -3 342 -33 68
c-40 80 -88 120 -163 136 -65 14 -103 13 -162 -5z"/>
<path d="M5494 1471 c-56 -14 -115 -55 -144 -100 -17 -24 -30 -48 -30 -53 0
-4 -4 -8 -10 -8 -6 0 -10 32 -10 75 l0 75 -120 0 -120 0 0 -440 0 -440 119 0
120 0 3 303 c3 342 3 342 81 378 86 38 163 18 191 -51 13 -34 16 -86 16 -335
l0 -295 126 0 126 0 -4 328 c-5 362 -10 394 -71 474 -18 23 -52 52 -77 65 -49
25 -146 37 -196 24z"/>
<path d="M7915 1466 c-114 -30 -171 -71 -211 -153 -23 -46 -28 -69 -27 -125 3
-163 94 -239 325 -269 108 -15 145 -30 154 -65 9 -34 -12 -74 -46 -91 -67 -34
-202 -5 -274 59 l-48 41 -71 -71 -71 -72 38 -39 c188 -192 613 -145 692 77 19
54 17 150 -5 197 -41 91 -121 136 -281 160 -126 19 -167 35 -176 70 -17 67 24
101 120 99 59 -1 119 -24 181 -69 20 -14 25 -10 90 56 l70 70 -39 35 c-99 86
-281 125 -421 90z"/>
<path d="M10573 1470 c-204 -43 -317 -202 -317 -445 -1 -55 6 -125 13 -155 52
-208 209 -321 426 -307 102 6 181 36 243 92 193 174 184 588 -16 742 -83 64
-240 96 -349 73z m193 -220 c46 -43 54 -77 54 -229 0 -166 -12 -208 -68 -243
-47 -29 -124 -30 -170 -3 -58 35 -72 81 -72 243 0 147 7 181 43 221 32 34 55
41 124 38 50 -2 68 -8 89 -27z"/>
<path d="M2750 1020 l0 -440 123 0 122 0 -3 440 -2 440 -120 0 -120 0 0 -440z"/>
<path d="M7300 1020 l0 -440 125 0 125 0 0 440 0 440 -125 0 -125 0 0 -440z"/>
<path d="M9890 1020 l0 -440 125 0 125 0 0 440 0 440 -125 0 -125 0 0 -440z"/>
<path d="M9504 841 c-49 -22 -69 -63 -68 -136 1 -68 24 -109 74 -129 53 -21
95 -20 148 4 49 22 72 64 72 132 0 119 -109 182 -226 129z"/>
</g>
</svg>
