<?xml version="1.0" encoding="UTF-8"?>
<svg id="Layer_1" data-name="Layer 1" xmlns="http://www.w3.org/2000/svg" viewBox="0 0 2000 2000">
  <path d="M1399.78,1648.08c-62.65,0-131.87-16.97-200.19-49.06-70.52-33.13-139.33-82.18-198.98-141.83l-.62-.62-.62.62c-59.65,59.65-128.46,108.69-198.98,141.83-68.32,32.1-137.54,49.07-200.19,49.07-73.92,0-136.39-23.39-180.64-67.65-41.45-41.45-64.76-99.34-67.4-167.4-2.57-66.2,14.31-140,48.81-213.43,33.14-70.52,82.18-139.32,141.84-198.97l.62-.62-.62-.62c-93.95-93.95-158.48-206.03-181.73-315.61-11.29-53.24-12.21-102.99-2.71-147.86,9.82-46.41,30.41-85.55,61.18-116.33,44.26-44.26,106.73-67.65,180.65-67.65,62.65,0,131.87,16.97,200.19,49.06,70.52,33.13,139.32,82.18,198.98,141.83l.62.62.62-.62c59.65-59.65,128.46-108.69,198.98-141.83,68.32-32.1,137.55-49.07,200.19-49.07,73.92,0,136.39,23.39,180.65,67.65,30.78,30.78,51.36,69.92,61.18,116.33,9.5,44.87,8.58,94.62-2.71,147.86-23.24,109.58-87.78,221.67-181.73,315.61l-.62.62.62.62c93.95,93.95,158.48,206.03,181.73,315.61,11.29,53.24,12.21,102.99,2.71,147.86-9.82,46.41-30.41,85.55-61.18,116.33-44.26,44.26-106.72,67.65-180.65,67.65Z"/>
  <path d="M1399.79,352.8c73.68,0,135.94,23.3,180.03,67.4,30.66,30.66,51.16,69.65,60.95,115.89,9.47,44.75,8.56,94.38-2.71,147.5-11.28,53.19-32.37,107.18-62.69,160.49-31.4,55.22-71.37,107.26-118.8,154.69l-1.24,1.24,1.24,1.24c47.43,47.43,87.4,99.48,118.8,154.69,30.32,53.31,51.41,107.3,62.69,160.49,11.27,53.12,12.18,102.75,2.71,147.5-9.79,46.24-30.29,85.24-60.95,115.89-44.09,44.09-106.34,67.4-180.03,67.4-62.52,0-131.61-16.94-199.81-48.98-34.69-16.3-68.98-36.4-101.92-59.75-33.96-24.07-66.53-51.63-96.81-81.91l-1.24-1.24-1.24,1.24c-30.28,30.28-62.85,57.84-96.81,81.91-32.94,23.35-67.24,43.45-101.92,59.75-68.21,32.05-137.3,48.99-199.81,48.99-73.69,0-135.94-23.3-180.02-67.4-20.95-20.94-37.31-46.08-48.63-74.71-10.99-27.78-17.22-58.77-18.51-92.11-2.56-66.06,14.29-139.72,48.73-213.03,16.3-34.68,36.4-68.97,59.75-101.92,24.07-33.96,51.63-66.53,81.91-96.81l1.24-1.24-1.24-1.24c-47.43-47.43-87.4-99.48-118.8-154.69-30.32-53.31-51.41-107.3-62.69-160.49-11.27-53.12-12.18-102.75-2.71-147.5,9.79-46.24,30.29-85.24,60.95-115.89,44.09-44.09,106.34-67.4,180.03-67.4,62.52,0,131.61,16.94,199.81,48.98,34.69,16.3,68.98,36.4,101.92,59.75,33.96,24.07,66.53,51.63,96.81,81.91l1.24,1.24,1.24-1.24c30.28-30.28,62.85-57.84,96.81-81.91,32.94-23.35,67.24-43.45,101.92-59.75,68.21-32.05,137.3-48.99,199.82-48.99h0M1399.78,351.05c-125.58,0-275.98,67.35-399.78,191.15-123.81-123.81-274.2-191.15-399.78-191.15-71.69,0-135.33,21.97-181.27,67.91-126.41,126.41-71.23,386.55,123.26,581.04-61.91,61.91-109.69,130.46-142.01,199.22-69.21,147.31-67.42,295.65,18.76,381.82,45.95,45.95,109.55,67.91,181.26,67.91,125.58,0,275.98-67.35,399.78-191.15,123.81,123.81,274.2,191.15,399.78,191.15,71.69,0,135.33-21.97,181.27-67.91,126.41-126.41,71.23-386.55-123.26-581.04,194.49-194.49,249.67-454.63,123.26-581.04-45.95-45.95-109.56-67.91-181.27-67.91h0Z"/>
</svg>