<?xml version="1.0" standalone="no"?>
<!DOCTYPE svg PUBLIC "-//W3C//DTD SVG 20010904//EN"
 "http://www.w3.org/TR/2001/REC-SVG-20010904/DTD/svg10.dtd">
<svg version="1.0" xmlns="http://www.w3.org/2000/svg"
 width="512.000000pt" height="512.000000pt" viewBox="0 0 512.000000 512.000000"
 preserveAspectRatio="xMidYMid meet">

<g transform="translate(0.000000,512.000000) scale(0.100000,-0.100000)"
fill="#000000" stroke="none">
<path d="M2570 4684 c-19 -8 -89 -20 -155 -25 -96 -8 -127 -14 -155 -32 -71
-46 -82 -47 -231 -37 -131 9 -142 11 -172 36 -51 43 -93 57 -132 44 -18 -6
-36 -17 -39 -25 -3 -8 -31 -28 -63 -45 -32 -17 -73 -40 -91 -52 -32 -20 -34
-20 -66 -3 -24 13 -46 16 -80 13 -66 -8 -113 -48 -153 -129 -27 -56 -43 -75
-103 -119 -181 -134 -229 -276 -161 -480 58 -173 238 -503 350 -639 21 -25 64
-91 96 -146 32 -55 75 -127 96 -160 53 -85 205 -395 240 -490 73 -196 99 -280
118 -377 11 -57 30 -148 42 -203 33 -158 18 -324 -51 -533 -29 -90 -146 -365
-215 -505 -71 -144 -286 -415 -371 -468 -19 -11 -34 -27 -34 -34 0 -16 65 -25
106 -13 64 17 186 177 317 413 79 144 119 231 198 428 61 152 108 253 139 297
10 14 30 48 45 75 24 44 81 121 149 203 11 15 59 62 105 107 46 44 99 95 117
113 18 17 37 32 43 32 6 0 11 5 11 10 0 6 7 10 15 10 8 0 15 3 15 8 0 4 18 16
40 26 22 11 40 23 40 28 0 4 6 8 13 8 6 0 23 9 37 20 39 31 259 160 325 191
71 33 376 111 525 134 147 23 389 79 494 115 238 83 487 253 514 353 5 19 7
65 3 102 -7 61 -11 71 -44 101 -20 18 -41 42 -46 53 -13 23 -36 107 -57 206
-20 98 -56 167 -104 200 -22 15 -42 36 -45 46 -4 10 -26 35 -50 54 -45 37 -60
65 -68 127 -7 44 -53 116 -113 175 -44 43 -60 48 -189 56 l-40 2 -5 62 c-6 79
-45 138 -112 171 -37 19 -47 29 -52 57 -13 68 -124 143 -193 130 -40 -7 -62
-29 -139 -132 -118 -159 -331 -514 -366 -610 -7 -18 -15 -33 -18 -33 -3 0 -30
-51 -60 -112 -30 -62 -58 -115 -61 -118 -13 -11 -38 -68 -32 -74 4 -3 1 -6 -6
-6 -7 0 -9 -4 -6 -10 3 -5 1 -10 -5 -10 -6 0 -8 -4 -5 -10 3 -5 1 -10 -5 -10
-7 0 -9 7 -6 17 4 9 27 96 52 192 74 290 150 496 290 790 71 148 71 161 3 161
-34 0 -39 3 -45 28 -9 39 -52 92 -85 106 -15 6 -37 24 -48 38 -12 14 -48 44
-80 66 -70 48 -129 60 -181 36z"/>
</g>
</svg>
