<svg width="1754" height="292" viewBox="0 0 1754 292" fill="none" xmlns="http://www.w3.org/2000/svg">
<rect width="1754" height="292" fill="white"/>
<path d="M136.029 34.0772C135.024 34.5006 131.319 35.1358 127.825 35.4004C122.744 35.8238 121.103 36.1414 119.621 37.0942C115.863 39.5289 115.281 39.5819 107.394 39.0526C100.461 38.5762 99.8784 38.4703 98.2905 37.1471C95.5911 34.8711 93.3681 34.1301 91.3038 34.8182C90.3511 35.1358 89.3983 35.718 89.2396 36.1414C89.0808 36.5649 87.5987 37.6235 85.905 38.5233C84.2112 39.4231 82.0411 40.6404 81.0884 41.2756C79.3946 42.3342 79.2888 42.3342 77.595 41.4344C76.3247 40.7463 75.1603 40.5875 73.3607 40.7463C69.8673 41.1697 67.3796 43.2869 65.2624 47.5742C63.8333 50.5383 62.9864 51.5439 59.8107 53.8729C50.2304 60.9654 47.6898 68.4814 51.289 79.2791C54.3589 88.4359 63.8862 105.903 69.8144 113.101C70.9259 114.424 73.2019 117.918 74.8956 120.829C76.5894 123.74 78.8653 127.551 79.9769 129.298C82.7821 133.797 90.8274 150.205 92.68 155.233C96.5439 165.607 97.92 170.054 98.9257 175.188C99.5079 178.205 100.514 183.021 101.149 185.932C102.895 194.295 102.101 203.082 98.4493 214.144C96.9144 218.908 90.7216 233.463 87.0694 240.873C83.3114 248.495 71.9316 262.839 67.4325 265.645C66.4269 266.227 65.6329 267.074 65.6329 267.444C65.6329 268.291 69.0733 268.767 71.2435 268.132C74.631 267.232 81.0884 258.764 88.0222 246.272C92.2036 238.65 94.3208 234.046 98.5023 223.618C101.731 215.573 104.219 210.227 105.859 207.898C106.389 207.157 107.447 205.358 108.241 203.929C109.512 201.6 112.529 197.524 116.128 193.184C116.71 192.39 119.251 189.902 121.685 187.52C124.12 185.191 126.925 182.492 127.878 181.539C128.831 180.639 129.837 179.846 130.154 179.846C130.472 179.846 130.736 179.581 130.736 179.316C130.736 178.999 131.107 178.787 131.53 178.787C131.954 178.787 132.324 178.628 132.324 178.363C132.324 178.152 133.277 177.517 134.442 176.987C135.606 176.405 136.559 175.77 136.559 175.505C136.559 175.294 136.876 175.082 137.247 175.082C137.564 175.082 138.464 174.605 139.205 174.023C141.269 172.382 152.914 165.554 156.407 163.914C160.165 162.167 176.309 158.038 184.195 156.821C191.976 155.604 204.785 152.64 210.343 150.734C222.94 146.341 236.119 137.343 237.549 132.05C237.813 131.044 237.919 128.61 237.707 126.651C237.337 123.422 237.125 122.893 235.378 121.305C234.32 120.353 233.208 119.082 232.944 118.5C232.256 117.283 231.038 112.837 229.927 107.596C228.868 102.409 226.963 98.7572 224.422 97.0105C223.258 96.2166 222.199 95.1051 222.04 94.5758C221.828 94.0465 220.664 92.7232 219.394 91.7176C217.012 89.7592 216.218 88.2772 215.794 84.9955C215.424 82.6666 212.989 78.8557 209.813 75.7328C207.484 73.4568 206.638 73.1922 199.81 72.7688L197.692 72.6629L197.428 69.3813C197.11 65.1998 195.046 62.077 191.5 60.3303C189.541 59.3246 189.012 58.7953 188.747 57.3133C188.059 53.7141 182.184 49.7444 178.532 50.4324C176.415 50.8029 175.25 51.9674 171.175 57.4191C164.929 65.835 153.655 84.625 151.802 89.7063C151.432 90.659 151.009 91.4529 150.85 91.4529C150.691 91.4529 149.262 94.1523 147.674 97.3811C146.086 100.663 144.604 103.468 144.445 103.627C143.757 104.209 142.434 107.226 142.751 107.544C142.963 107.702 142.804 107.861 142.434 107.861C142.063 107.861 141.958 108.073 142.116 108.39C142.275 108.655 142.169 108.92 141.852 108.92C141.534 108.92 141.428 109.131 141.587 109.449C141.746 109.714 141.64 109.978 141.322 109.978C140.952 109.978 140.846 109.608 141.005 109.079C141.217 108.602 142.434 103.997 143.757 98.916C147.674 83.5664 151.697 72.6629 159.107 57.1016C162.865 49.268 162.865 48.5799 159.266 48.5799C157.466 48.5799 157.201 48.4211 156.884 47.0979C156.407 45.0336 154.131 42.2283 152.385 41.4873C151.591 41.1697 150.426 40.217 149.844 39.476C149.209 38.735 147.303 37.1471 145.61 35.9826C141.905 33.442 138.782 32.8069 136.029 34.0772Z" fill="black"/>
<path d="M386.4 74C415.8 74 436.6 89.8 436.6 116.8C436.6 134.2 425.8 146.4 411.8 150.4C426.4 152.6 432.8 160 434.2 175L437.8 216H411.6L408.6 178.8C407.6 166.4 400.2 162.4 382.2 162.4H353V216H327V74H386.4ZM353 139.6H383.6C400.4 139.6 409.8 132.2 409.8 118.4C409.8 104.4 400.4 96.6 383.6 96.6H353V139.6ZM445.38 163C445.38 129.4 466.18 107.6 497.98 107.6C525.38 107.6 547.38 126.4 547.78 163.8V170H472.38C473.58 187.6 482.78 198.2 497.98 198.2C507.58 198.2 516.38 192.6 520.18 183.4L546.38 185.4C539.98 205.6 520.78 218.4 497.98 218.4C466.18 218.4 445.38 196.6 445.38 163ZM472.58 153H521.38C519.38 134.8 509.38 127.8 497.98 127.8C483.78 127.8 474.58 137.2 472.58 153ZM560.563 110H583.763L584.563 127.6C590.163 113.2 602.163 107.6 616.363 107.6C639.963 107.6 652.763 124 652.763 147.8V216H626.963V156C626.963 138.2 622.363 128.4 608.563 128.4C594.563 128.4 586.163 138.2 586.163 156V216H560.563V110ZM666.336 142.4C670.536 120.2 687.536 107.6 713.736 107.6C744.336 107.6 760.336 123.4 760.336 153.2V189.6C760.336 195.6 762.936 197.4 766.936 197.4H771.136V216L765.136 216.2C756.936 216.4 740.136 216.6 738.136 199.8C733.136 210.4 721.136 218.4 702.736 218.4C681.336 218.4 664.536 207 664.536 188.2C664.536 167.8 679.936 160.8 704.936 156L734.536 150.2C734.536 133.8 727.536 126 713.736 126C702.336 126 694.936 132.2 692.536 143.8L666.336 142.4ZM691.136 187.4C691.136 194.6 697.336 200.4 709.736 200.4C724.136 200.4 735.136 189.8 735.136 169V167.6L714.936 171.2C701.536 173.6 691.136 175.4 691.136 187.4ZM786.05 86H811.65V110H839.65V129.8H811.65V183.4C811.65 191.6 815.85 196.2 823.65 196.2H839.65V216H819.45C797.65 216 786.05 205 786.05 183.4V129.8H769.25V110H786.05V86ZM847.992 142.4C852.192 120.2 869.192 107.6 895.392 107.6C925.992 107.6 941.992 123.4 941.992 153.2V189.6C941.992 195.6 944.592 197.4 948.592 197.4H952.792V216L946.792 216.2C938.592 216.4 921.792 216.6 919.792 199.8C914.792 210.4 902.792 218.4 884.392 218.4C862.992 218.4 846.192 207 846.192 188.2C846.192 167.8 861.592 160.8 886.592 156L916.192 150.2C916.192 133.8 909.192 126 895.392 126C883.992 126 876.592 132.2 874.192 143.8L847.992 142.4ZM872.792 187.4C872.792 194.6 878.992 200.4 891.392 200.4C905.792 200.4 916.792 189.8 916.792 169V167.6L896.592 171.2C883.192 173.6 872.792 175.4 872.792 187.4ZM1005.96 74H1040.96L1080.16 184L1119.16 74H1154.36V216H1128.36V118.4L1092.56 215.8H1067.76L1031.96 118.4V216H1005.96V74ZM1176.43 110H1202.03V216H1176.43V110ZM1176.03 95.4V74.2H1202.63V95.4H1176.03ZM1219.6 110H1243.6L1244.2 130.8C1248.2 116.8 1256.2 110 1269.8 110H1279.6V129.8H1269.6C1252.6 129.8 1245.2 138.6 1245.2 155.6V216H1219.6V110ZM1289.14 74H1314.74V157.8L1358.14 110H1389.54L1348.14 153.8L1391.54 216H1362.74L1331.34 169.2L1314.74 187V216H1289.14V74ZM1440.64 218.4C1408.84 218.4 1388.04 196.6 1388.04 163C1388.04 129.4 1408.84 107.6 1440.64 107.6C1472.24 107.6 1493.04 129.4 1493.04 163C1493.04 196.6 1472.24 218.4 1440.64 218.4ZM1414.64 163C1414.64 184.8 1424.04 197.6 1440.64 197.6C1457.04 197.6 1466.64 184.8 1466.64 163C1466.64 141.2 1457.04 128.4 1440.64 128.4C1424.04 128.4 1414.64 141.2 1414.64 163ZM1600.46 110L1561.26 216H1531.06L1492.06 110H1518.46L1546.06 190L1573.66 110H1600.46ZM1606.65 142.4C1610.85 120.2 1627.85 107.6 1654.05 107.6C1684.65 107.6 1700.65 123.4 1700.65 153.2V189.6C1700.65 195.6 1703.25 197.4 1707.25 197.4H1711.45V216L1705.45 216.2C1697.25 216.4 1680.45 216.6 1678.45 199.8C1673.45 210.4 1661.45 218.4 1643.05 218.4C1621.65 218.4 1604.85 207 1604.85 188.2C1604.85 167.8 1620.25 160.8 1645.25 156L1674.85 150.2C1674.85 133.8 1667.85 126 1654.05 126C1642.65 126 1635.25 132.2 1632.85 143.8L1606.65 142.4ZM1631.45 187.4C1631.45 194.6 1637.65 200.4 1650.05 200.4C1664.45 200.4 1675.45 189.8 1675.45 169V167.6L1655.25 171.2C1641.85 173.6 1631.45 175.4 1631.45 187.4ZM1646.25 94.2L1658.85 68.2H1681.05L1663.05 94.2H1646.25Z" fill="black"/>
</svg>
