<svg width="23" height="28" viewBox="0 0 23 28" fill="none" xmlns="http://www.w3.org/2000/svg">
<path d="M11.2518 1.042C11.2875 0.748881 11.7125 0.74888 11.7482 1.042L13.0686 11.9067C13.0819 12.016 13.1652 12.1038 13.2737 12.1228L22.5929 13.7537C22.8688 13.802 22.8688 14.198 22.5929 14.2463L13.2737 15.8772C13.1652 15.8962 13.0819 15.984 13.0686 16.0933L11.7482 26.958C11.7125 27.2511 11.2875 27.2511 11.2518 26.958L9.93139 16.0933C9.9181 15.984 9.83481 15.8962 9.72631 15.8772L0.407104 14.2463C0.131234 14.198 0.131232 13.802 0.407102 13.7537L9.72631 12.1228C9.83481 12.1038 9.9181 12.016 9.93139 11.9067L11.2518 1.042Z" fill="white"/>
</svg>
