<svg width="369" height="82" viewBox="0 0 369 82" fill="none" xmlns="http://www.w3.org/2000/svg">
<mask id="mask0_2283_54" style="mask-type:luminance" maskUnits="userSpaceOnUse" x="0" y="0" width="369" height="82">
<path d="M369 0H0V82H369V0Z" fill="white"/>
</mask>
<g mask="url(#mask0_2283_54)">
<path d="M84.36 5.114C85.292 6.881 84.826 8.36901 84.174 9.94901C83.149 12.553 83.429 15.063 85.292 17.202C87.155 19.434 89.764 19.712 92.465 19.155C96.192 18.318 98.334 14.784 97.775 10.879C97.496 9.019 96.378 7.16 97.403 5.114C96.471 5.579 96.471 5.579 95.353 7.439C94.328 6.23 93.397 4.92801 92.279 3.62601C91.347 2.60401 90.416 1.674 90.975 0C89.857 0.558 89.298 1.30199 88.925 2.23199C88.646 3.16099 88.459 4.091 88.273 5.021C88.087 5.951 87.621 6.78799 86.689 7.34599C86.13 6.32299 85.571 5.579 84.36 5.114Z" fill="white"/>
<path d="M5.0648 59.299V16.412L0 15.58V11.608L13.207 9.94299L15.4509 9.625V11.352V25.928C15.9638 25.415 16.6049 24.839 17.3742 24.39C18.0795 23.878 18.9129 23.43 19.7464 23.045C20.6439 22.661 21.5415 22.341 22.5673 22.084C23.593 21.828 24.683 21.7 25.837 21.7C27.889 21.7 29.812 22.02 31.607 22.725C33.402 23.43 35.005 24.518 36.351 25.992C37.698 27.529 38.787 29.451 39.621 31.885C40.39 34.319 40.839 37.201 40.839 40.724C40.839 43.734 40.39 46.489 39.493 49.115C38.595 51.741 37.249 53.919 35.518 55.84C33.787 57.762 31.671 59.235 29.235 60.324C26.735 61.413 23.978 61.989 20.8363 61.989C18.6565 61.989 16.669 61.861 14.8098 61.669C13.0146 61.477 11.4119 61.221 10.0655 60.901C8.7192 60.58 7.6293 60.324 6.7958 60.004C5.9624 59.684 5.3213 59.491 5.0648 59.299ZM21.5415 27.913C20.131 27.913 18.9129 28.169 17.8871 28.682C16.8613 29.194 16.0279 29.771 15.4509 30.411V55.776C15.7714 56.289 16.3484 56.737 17.246 56.993C18.1436 57.314 19.2335 57.442 20.3875 57.442C21.9261 57.442 23.272 57.057 24.362 56.225C25.516 55.392 26.414 54.303 27.183 52.894C27.953 51.485 28.466 49.819 28.85 47.962C29.235 46.104 29.427 44.055 29.427 41.941C29.427 39.763 29.299 37.777 28.978 35.984C28.658 34.255 28.209 32.781 27.504 31.564C26.863 30.347 26.029 29.451 25.004 28.81C24.106 28.234 22.8878 27.913 21.5415 27.913Z" fill="white"/>
<path d="M46.438 60.847V56.3L51.31 55.659V29.653L46.694 28.244V23.12L58.234 21.455H58.426L60.221 22.928V25.746L60.157 30.999H60.286C60.542 30.294 61.055 29.397 61.76 28.308C62.465 27.219 63.363 26.131 64.389 25.106C65.415 24.081 66.633 23.184 67.979 22.48C69.325 21.775 70.8 21.391 72.403 21.391C73.108 21.391 73.621 21.391 74.005 21.455C74.39 21.519 74.711 21.583 74.967 21.647V33.369C74.711 33.176 74.07 32.984 73.044 32.792C72.018 32.6 70.736 32.472 69.325 32.472C68.556 32.472 67.723 32.536 66.953 32.6C66.184 32.664 65.415 32.792 64.709 32.984C64.004 33.112 63.427 33.304 62.85 33.497C62.273 33.689 61.888 33.881 61.568 34.073V55.595L69.966 56.428V60.847H46.438Z" fill="white"/>
<path d="M82.156 61.221V56.673L87.093 56.033V30.027L82.541 28.554V23.494L94.979 21.828L97.607 21.569V23.301V55.969L102.48 56.673V61.221H82.156Z" fill="white"/>
<path d="M125.082 48.728C123.157 48.728 121.365 48.595 119.772 48.328C119.374 48.728 119.042 49.195 118.776 49.728C118.511 50.261 118.378 50.862 118.378 51.595C118.378 52.395 118.511 53.062 118.843 53.595C119.175 54.062 119.639 54.462 120.303 54.729C120.967 54.995 121.763 55.195 122.825 55.262C123.887 55.329 125.082 55.396 126.476 55.396H133.446C138.49 55.396 142.208 56.262 144.73 57.929C147.186 59.663 148.447 62.463 148.447 66.33C148.447 68.664 147.85 70.864 146.589 72.798C145.394 74.732 143.734 76.332 141.61 77.732C139.553 79.066 137.097 80.132 134.375 80.866C131.654 81.599 128.799 81.999 125.812 81.999H125.746C122.427 81.999 119.639 81.733 117.316 81.133C114.993 80.532 113.068 79.732 111.541 78.732C110.014 77.732 108.952 76.465 108.222 75.065C107.492 73.665 107.16 72.065 107.16 70.398C107.16 69.331 107.359 68.331 107.758 67.331C108.156 66.397 108.687 65.53 109.351 64.73C110.014 63.93 110.745 63.263 111.674 62.663C112.537 62.063 113.466 61.596 114.395 61.263C113.068 60.53 112.006 59.663 111.276 58.596C110.545 57.529 110.214 56.262 110.214 54.795C110.214 52.995 110.678 51.528 111.607 50.261C112.537 49.061 113.732 47.928 115.192 46.994C112.802 45.927 111.076 44.394 109.948 42.394C108.82 40.393 108.222 38.06 108.222 35.393C108.222 33.259 108.687 31.392 109.616 29.658C110.545 27.925 111.873 26.458 113.466 25.258C115.125 24.058 116.984 23.124 119.175 22.457C121.365 21.791 123.688 21.457 126.144 21.457H126.211C132.052 21.457 136.366 22.591 139.221 24.858C139.553 24.458 140.017 24.058 140.548 23.658C141.079 23.258 141.743 22.858 142.473 22.524C143.203 22.191 144 21.924 144.863 21.724C145.726 21.524 146.655 21.391 147.651 21.391H149.31V29.258H142.407C142.672 29.992 142.871 30.792 143.004 31.592C143.137 32.392 143.203 33.326 143.203 34.259C143.203 36.393 142.739 38.326 141.876 40.06C141.013 41.794 139.752 43.327 138.159 44.661C136.566 45.927 134.641 46.928 132.45 47.661C130.193 48.395 127.804 48.728 125.082 48.728ZM123.29 62.93C121.763 62.93 120.369 62.797 119.108 62.597C118.644 63.13 118.179 63.797 117.781 64.597C117.382 65.397 117.183 66.597 117.183 67.997C117.183 69.598 117.382 70.931 117.781 71.998C118.179 73.065 118.843 73.998 119.639 74.665C120.436 75.332 121.498 75.865 122.693 76.132C123.887 76.465 125.281 76.599 126.874 76.599H126.941C128.335 76.599 129.729 76.465 131.123 76.132C132.45 75.798 133.711 75.332 134.773 74.665C135.835 73.998 136.698 73.131 137.296 72.131C137.959 71.131 138.291 69.931 138.291 68.597C138.291 67.597 138.159 66.664 137.959 65.93C137.76 65.197 137.362 64.597 136.765 64.13C136.167 63.663 135.437 63.33 134.441 63.13C133.446 62.93 132.185 62.797 130.658 62.797H123.29V62.93ZM125.945 44.061C127.14 44.061 128.136 43.794 128.932 43.327C129.729 42.86 130.326 42.194 130.791 41.393C131.255 40.593 131.521 39.593 131.72 38.46C131.919 37.326 131.985 36.126 131.985 34.926C131.985 31.859 131.521 29.592 130.525 28.192C129.529 26.791 127.936 26.125 125.613 26.125H125.547C123.356 26.125 121.763 26.858 120.768 28.258C119.772 29.658 119.241 31.725 119.241 34.593C119.241 35.993 119.374 37.26 119.573 38.393C119.772 39.527 120.17 40.527 120.635 41.393C121.166 42.194 121.83 42.86 122.693 43.327C123.555 43.794 124.618 44.061 125.945 44.061Z" fill="white"/>
<path d="M153.066 61.221V56.673L157.233 55.969V16.043L152.168 15.21V11.239L165.311 9.573L166.075 9.44501H167.504L167.619 21.892L167.504 26.739C168.081 26.162 168.452 26.12 169.414 25.479C170.376 24.839 171.337 24.262 172.491 23.75C173.645 23.237 174.928 22.789 176.274 22.405C177.62 22.085 179.095 21.892 180.569 21.892C182.749 21.892 184.608 22.213 186.019 22.789C187.429 23.366 188.583 24.326 189.481 25.607C190.378 26.888 190.891 28.49 191.276 30.411C191.597 32.333 191.789 34.639 191.789 37.265V55.969L196.533 56.673V61.221H177.62V56.801L181.403 56.033V37.201C181.403 35.664 181.339 34.319 181.146 33.166C181.018 32.013 180.698 31.116 180.249 30.347C179.8 29.579 179.223 29.066 178.454 28.746C177.684 28.426 176.659 28.234 175.44 28.234C174.735 28.234 174.03 28.298 173.261 28.49C172.491 28.682 171.786 28.874 171.145 29.066C170.44 29.323 169.799 29.579 169.222 29.899C168.645 30.219 168.132 30.54 167.683 30.86V56.033L172.299 56.737V61.285H153.066V61.221Z" fill="white"/>
<path d="M204.063 53.38V28.527H199.318V24.684C199.511 24.62 199.767 24.556 200.152 24.428C200.536 24.3 200.921 24.108 201.37 23.98C201.755 23.852 202.139 23.659 202.524 23.531C202.909 23.403 203.101 23.275 203.165 23.211C203.934 22.635 204.704 21.546 205.537 19.944C205.794 19.496 205.986 18.984 206.307 18.343C206.627 17.703 206.819 17.126 207.076 16.485C207.332 15.845 207.589 15.204 207.781 14.564C208.038 13.923 208.166 13.347 208.358 12.834H214.385L214.513 22.827H224.45V28.592H214.513V47.295C214.513 49.089 214.513 50.498 214.577 51.587C214.641 52.675 214.769 53.444 214.962 53.957C215.154 54.469 215.539 54.853 215.987 54.981C216.436 55.109 217.077 55.238 217.847 55.238H217.911C218.424 55.238 219.001 55.174 219.642 55.109C220.219 55.045 220.796 54.917 221.373 54.789C221.95 54.661 222.463 54.533 222.976 54.405C223.488 54.277 223.873 54.149 224.194 54.021H224.258L225.861 57.992C225.155 58.504 224.386 59.017 223.36 59.529C222.334 60.042 221.309 60.49 220.09 60.938C218.872 61.387 217.654 61.707 216.308 61.963C214.962 62.219 213.679 62.347 212.333 62.347H212.269C210.794 62.347 209.512 62.155 208.486 61.771C207.461 61.387 206.563 60.81 205.922 60.042C205.281 59.273 204.832 58.376 204.511 57.223C204.191 56.07 204.063 54.853 204.063 53.38Z" fill="white"/>
<path d="M255.173 62.19C253.186 62.19 251.262 61.806 249.403 61.037C247.544 60.268 245.941 59.051 244.595 57.514C243.184 55.913 242.095 53.927 241.261 51.557C240.428 49.187 240.043 46.369 240.043 43.102C240.043 40.092 240.492 37.337 241.389 34.775C242.287 32.213 243.633 29.971 245.3 28.05C247.031 26.128 249.083 24.655 251.519 23.566C253.955 22.477 256.712 21.965 259.789 21.965C260.879 21.965 261.905 22.029 262.995 22.157C264.021 22.285 265.046 22.413 266.008 22.605V15.499L259.341 14.858V11.656L271.778 10.182H271.971L273.637 9.98199V57.386H277.676V60.973C276.715 61.229 275.625 61.485 274.343 61.806C273.06 62.126 271.714 62.254 270.304 62.254C269.727 62.254 269.15 62.19 268.701 62.126C268.252 62.062 267.867 61.87 267.547 61.613C267.226 61.357 266.97 60.973 266.842 60.525C266.713 60.076 266.585 59.436 266.585 58.667V57.194C266.008 57.834 265.303 58.411 264.534 59.051C263.764 59.692 262.931 60.204 261.969 60.653C261.007 61.101 259.982 61.485 258.828 61.806C257.738 61.998 256.52 62.19 255.173 62.19ZM258.315 57.002C259.212 57.002 260.046 56.874 260.879 56.681C261.649 56.425 262.418 56.169 263.059 55.849C263.7 55.528 264.277 55.144 264.79 54.76C265.303 54.375 265.752 53.991 266.072 53.607V27.857C265.944 27.601 265.623 27.345 265.239 27.089C264.79 26.833 264.341 26.576 263.7 26.384C263.123 26.192 262.418 26 261.713 25.936C261.007 25.808 260.238 25.744 259.405 25.744C257.866 25.744 256.456 26 255.173 26.576C253.827 27.153 252.673 28.05 251.647 29.331C250.621 30.612 249.852 32.277 249.275 34.327C248.698 36.377 248.377 38.875 248.313 41.821C248.249 44.447 248.506 46.753 249.019 48.675C249.531 50.596 250.237 52.134 251.134 53.415C252.032 54.632 253.122 55.592 254.34 56.169C255.558 56.681 256.904 57.002 258.315 57.002Z" fill="white"/>
<path d="M278.619 51.44C278.619 49.838 278.94 48.365 279.517 47.084C280.094 45.803 280.927 44.714 282.017 43.689C283.107 42.729 284.325 41.896 285.736 41.191C287.146 40.487 288.685 39.974 290.352 39.526C292.018 39.078 293.749 38.757 295.545 38.565C297.34 38.373 299.135 38.245 300.866 38.181V36.387C300.866 34.786 300.738 33.441 300.545 32.352C300.289 31.263 299.904 30.366 299.391 29.662C298.814 28.957 298.109 28.445 297.147 28.189C296.25 27.868 295.032 27.74 293.621 27.74C292.403 27.74 291.185 27.868 289.967 28.06C288.749 28.317 287.595 28.573 286.441 28.893C285.351 29.213 284.325 29.598 283.363 29.918C282.402 30.302 281.632 30.623 280.991 30.943H280.927L279.388 27.676C279.837 27.292 280.542 26.779 281.632 26.139C282.722 25.498 284.005 24.922 285.479 24.281C286.954 23.705 288.556 23.192 290.223 22.744C291.954 22.296 293.621 22.104 295.288 22.104C297.66 22.104 299.648 22.36 301.315 22.808C302.917 23.321 304.264 24.089 305.29 25.114C306.315 26.203 307.021 27.548 307.469 29.277C307.918 31.007 308.11 33.057 308.11 35.555V57.845H312.278V61.112C311.829 61.24 311.316 61.368 310.739 61.496C310.162 61.624 309.521 61.752 308.88 61.88C308.239 62.009 307.533 62.137 306.892 62.201C306.251 62.265 305.546 62.329 304.969 62.329C304.328 62.329 303.815 62.329 303.302 62.265C302.853 62.201 302.469 62.073 302.148 61.816C301.828 61.56 301.635 61.24 301.507 60.728C301.379 60.279 301.315 59.639 301.315 58.806V57.525C300.994 57.781 300.545 58.165 299.904 58.742C299.263 59.254 298.43 59.831 297.468 60.343C296.506 60.856 295.416 61.368 294.134 61.752C292.916 62.137 291.57 62.329 290.159 62.329C288.621 62.329 287.146 62.137 285.736 61.688C284.325 61.24 283.107 60.599 282.017 59.767C280.927 58.87 280.094 57.781 279.453 56.372C278.811 54.963 278.619 53.361 278.619 51.44ZM293.172 57.205C293.621 57.205 294.198 57.141 294.839 57.012C295.48 56.884 296.186 56.692 296.891 56.5C297.596 56.244 298.301 55.988 298.943 55.667C299.648 55.347 300.225 54.963 300.802 54.578V42.024C298.109 42.024 295.865 42.28 294.006 42.729C292.211 43.177 290.736 43.818 289.646 44.586C288.556 45.355 287.787 46.252 287.338 47.276C286.89 48.301 286.633 49.326 286.633 50.415C286.633 51.632 286.825 52.721 287.146 53.554C287.467 54.386 287.915 55.091 288.492 55.667C289.069 56.18 289.775 56.628 290.544 56.82C291.441 57.076 292.275 57.205 293.172 57.205Z" fill="white"/>
<path d="M314.21 53.572V27.118H309.338V23.916C310.043 23.659 310.748 23.467 311.389 23.211C312.095 22.955 312.608 22.763 312.864 22.506C313.633 21.994 314.21 21.161 314.787 19.944C314.98 19.56 315.172 18.984 315.493 18.343C315.749 17.703 316.005 16.998 316.262 16.293C316.518 15.589 316.775 14.948 316.967 14.308C317.16 13.667 317.352 13.155 317.416 12.834H321.776V22.186H333.123V27.118H321.776V47.423C321.776 49.409 321.776 51.01 321.84 52.163C321.904 53.316 322.032 54.149 322.288 54.661C322.545 55.174 322.93 55.558 323.442 55.686C323.955 55.814 324.661 55.878 325.558 55.878H325.622C326.263 55.878 326.969 55.814 327.674 55.75C328.379 55.686 329.084 55.558 329.725 55.43C330.431 55.302 331.008 55.174 331.585 55.045C332.162 54.917 332.61 54.789 332.931 54.597H332.995L334.149 57.928C333.636 58.312 332.867 58.761 331.905 59.209C330.943 59.657 329.918 60.042 328.828 60.426C327.738 60.81 326.584 61.066 325.366 61.323C324.148 61.579 323.058 61.707 321.968 61.707H321.904C320.686 61.707 319.66 61.579 318.698 61.323C317.737 61.066 316.967 60.618 316.262 59.978C315.621 59.337 315.108 58.504 314.723 57.479C314.403 56.326 314.21 55.045 314.21 53.572Z" fill="white"/>
<path d="M334.342 50.727C334.342 49.126 334.662 47.652 335.239 46.371C335.816 45.09 336.65 44.001 337.74 42.977C338.83 42.016 340.048 41.183 341.458 40.478C342.869 39.774 344.407 39.261 346.074 38.813C347.741 38.365 349.472 38.044 351.267 37.852C353.062 37.66 354.857 37.532 356.589 37.468V35.674C356.589 34.073 356.46 32.728 356.268 31.639C356.011 30.55 355.627 29.653 355.114 28.949C354.537 28.244 353.832 27.732 352.87 27.476C351.972 27.155 350.754 27.027 349.344 27.027C348.126 27.027 346.908 27.155 345.69 27.348C344.471 27.604 343.317 27.86 342.163 28.18C341.074 28.501 340.048 28.885 339.086 29.205C338.124 29.589 337.355 29.91 336.714 30.23H336.65L335.111 26.963C335.56 26.579 336.265 26.066 337.355 25.426C338.445 24.785 339.727 24.209 341.202 23.568C342.676 22.992 344.279 22.48 345.946 22.031C347.677 21.583 349.344 21.391 351.011 21.391C353.383 21.391 355.37 21.647 357.037 22.095C358.64 22.608 359.986 23.376 361.012 24.401C362.038 25.49 362.743 26.835 363.192 28.565C363.641 30.294 363.833 32.344 363.833 34.842V57.132H368V60.399C367.552 60.527 367.039 60.655 366.462 60.783C365.885 60.911 365.244 61.039 364.602 61.168C363.961 61.296 363.256 61.424 362.615 61.488C361.974 61.552 361.269 61.616 360.692 61.616C360.051 61.616 359.538 61.616 359.025 61.552C358.576 61.488 358.191 61.36 357.871 61.104C357.55 60.847 357.358 60.527 357.23 60.015C357.101 59.566 357.037 58.926 357.037 58.093V56.812C356.717 57.068 356.268 57.453 355.627 58.029C354.986 58.541 354.152 59.118 353.191 59.63C352.229 60.143 351.139 60.655 349.857 61.039C348.639 61.424 347.292 61.616 345.882 61.616C344.343 61.616 342.869 61.424 341.458 60.975C340.048 60.527 338.83 59.887 337.74 59.054C336.65 58.157 335.816 57.068 335.175 55.659C334.534 54.25 334.342 52.649 334.342 50.727ZM348.959 56.492C349.408 56.492 349.985 56.428 350.626 56.3C351.267 56.171 351.972 55.979 352.678 55.787C353.383 55.531 354.088 55.275 354.729 54.954C355.434 54.634 356.011 54.25 356.589 53.866V41.311C353.896 41.311 351.652 41.567 349.793 42.016C347.998 42.464 346.523 43.105 345.433 43.873C344.343 44.642 343.574 45.539 343.125 46.563C342.676 47.588 342.42 48.613 342.42 49.702C342.42 50.919 342.612 52.008 342.933 52.841C343.253 53.673 343.702 54.378 344.279 54.954C344.856 55.467 345.561 55.915 346.331 56.107C347.228 56.364 348.062 56.492 348.959 56.492Z" fill="white"/>
</g>
</svg>
