<svg width="128" height="128" viewBox="0 0 128 128" fill="none" xmlns="http://www.w3.org/2000/svg">
<path fill-rule="evenodd" clip-rule="evenodd" d="M90.4909 57.2821C90.1209 52.4921 88.9949 47.8731 87.4289 43.3481C84.1849 33.2441 78.9789 24.3021 71.6459 16.6081C69.7919 14.6621 67.7299 12.8791 66.4369 10.4571C65.6189 8.92505 64.8399 7.37205 64.0429 5.82805L63.5379 4.55505C63.4529 4.84705 63.3989 4.95105 63.3959 5.05605C63.3309 7.57305 61.9049 9.28005 60.1289 10.8731C58.1319 12.6661 56.2729 14.6121 54.3539 16.4911L48.4529 24.2541C46.8609 27.1791 45.2709 30.1041 43.6809 33.0291L40.4909 41.6461L40.3949 41.7801C38.6389 47.5481 37.7729 53.4781 37.3469 59.4681C37.1869 61.7191 37.3689 64.0031 37.4959 66.2661C37.6769 69.5011 38.2389 72.6811 39.0819 75.8111C42.1439 87.1831 48.3579 96.6161 56.8529 104.63C58.4319 106.119 60.0519 107.473 61.6999 108.89C61.9819 107.925 62.2069 106.96 62.4629 105.995C62.7189 105.034 62.9779 104.078 63.1509 103.114C62.9769 104.078 62.7819 105.034 62.5889 105.995L61.7629 108.89L62.5009 111.391L63.1849 115.275L63.5109 119.328C63.5079 120.151 63.4749 120.976 63.5249 121.798C63.5369 122.008 63.8129 122.202 63.9669 122.404L65.3429 122.887L66.7769 123.445L66.5309 119.842L66.5199 116.294L67.0149 110.889L67.3739 109.712L68.4009 107.892C69.6689 106.872 71.0299 105.946 72.1849 104.811C74.2749 102.757 76.3599 100.677 78.2299 98.4281C80.6639 95.513 82.7422 92.3185 84.4209 88.9121C85.5429 86.6281 86.5989 84.2981 87.4729 81.9111C88.2429 79.8071 88.7199 77.5961 89.3269 75.4321C89.3809 75.2761 89.4529 75.1231 89.4869 74.9641C90.7409 69.1231 90.9519 63.2231 90.4909 57.2821Z" fill="white"/>
</svg>
