<svg width="128" height="128" viewBox="0 0 128 128" fill="none" xmlns="http://www.w3.org/2000/svg">
<g clip-path="url(#clip0_2186_47)">
<path d="M116.155 97.2465L72.2583 4.02581C71.1471 1.68856 68.844 0.14865 66.2595 0.014907C63.6691 -0.158657 61.1971 1.12284 59.8459 3.33977L12.2352 80.4531C10.7572 82.8302 10.7883 85.8479 12.315 88.1941L35.5923 124.241C37.4009 127.02 40.8221 128.278 44.0002 127.333L111.55 107.352C113.608 106.75 115.304 105.286 116.2 103.338C117.083 101.399 117.067 99.1699 116.158 97.2433L116.155 97.2465ZM106.327 101.245L49.0066 118.194C47.258 118.715 45.5796 117.199 45.9434 115.434L66.4223 17.3763C66.8052 15.5416 69.3387 15.2512 70.1396 16.9487L108.05 97.4539C108.389 98.1799 108.393 99.0181 108.061 99.7474C107.729 100.477 107.094 101.024 106.324 101.245H106.327Z" fill="white"/>
</g>
<defs>
<clipPath id="clip0_2186_47">
<rect width="128" height="128" fill="white"/>
</clipPath>
</defs>
</svg>
