<svg width="128" height="115" viewBox="0 0 128 115" fill="none" xmlns="http://www.w3.org/2000/svg">
<path d="M64.0002 68.805C70.437 68.805 75.6551 63.5869 75.6551 57.1501C75.6551 50.7132 70.437 45.4951 64.0002 45.4951C57.5633 45.4951 52.3452 50.7132 52.3452 57.1501C52.3452 63.5869 57.5633 68.805 64.0002 68.805Z" fill="white"/>
<path d="M108.268 37.9297C106.019 37.1118 103.668 36.2939 101.214 35.5783C101.827 33.1246 102.339 30.6709 102.748 28.3195C104.895 14.8243 102.543 5.31629 96 1.63578C94.0575 0.511182 91.9105 0 89.4569 0C82.3003 0 73.2013 5.31629 64 14.2109C54.7987 5.31629 45.6997 0 38.5431 0C36.0895 0 33.9425 0.511182 32 1.63578C25.4569 5.41853 23.1054 14.9265 25.2524 28.3195C25.6613 30.6709 26.1725 33.1246 26.7859 35.5783C24.3323 36.2939 21.9808 37.0096 19.7316 37.9297C6.95208 42.8371 0 49.5847 0 57.1502C0 64.7157 7.05432 71.4633 19.7316 76.3706C21.9808 77.1885 24.3323 78.0064 26.7859 78.722C26.1725 81.1757 25.6613 83.6294 25.2524 85.9808C23.1054 99.476 25.4569 108.984 32 112.665C33.9425 113.789 36.0895 114.3 38.5431 114.3C45.8019 114.3 54.901 108.984 64 100.089C73.2013 108.984 82.3003 114.3 89.4569 114.3C91.9105 114.3 94.0575 113.789 96 112.665C102.543 108.882 104.895 99.3738 102.748 85.9808C102.339 83.6294 101.827 81.1757 101.214 78.722C103.668 78.0064 106.019 77.2907 108.268 76.3706C121.048 71.4633 128 64.7157 128 57.1502C128 49.5847 121.048 42.8371 108.268 37.9297ZM93.1374 6.7476C97.3291 9.20128 98.7604 16.7668 97.0224 27.5016C96.7157 29.6486 96.2045 31.8978 95.5911 34.2492C90.2748 33.0224 84.6518 32.2045 78.722 31.6933C75.246 26.7859 71.6677 22.3898 68.0895 18.4026C75.655 10.9393 83.3227 5.82748 89.5591 5.82748C90.8882 5.82748 92.115 6.13418 93.1374 6.7476ZM81.6869 67.3738C79.8466 70.6454 77.6997 73.9169 75.4505 77.1885C71.6677 77.4952 67.885 77.5975 64 77.5975C60.0128 77.5975 56.23 77.4952 52.5495 77.1885C50.3003 73.9169 48.2556 70.6454 46.4153 67.3738C44.4728 64 42.6326 60.524 40.9968 57.1502C42.6326 53.7764 44.4728 50.3003 46.4153 46.9265C48.2556 43.655 50.4026 40.3834 52.6518 37.1118C56.4345 36.8051 60.2173 36.7029 64.1022 36.7029C68.0895 36.7029 71.8722 36.8051 75.5527 37.1118C77.8019 40.3834 79.8466 43.655 81.6869 46.9265C83.6294 50.3003 85.4697 53.7764 87.1054 57.1502C85.3674 60.524 83.6294 63.8978 81.6869 67.3738ZM90.1725 64C91.7061 67.5783 92.9329 71.0543 94.0575 74.5304C90.5815 75.3482 86.901 75.9617 83.016 76.4728C84.2428 74.5304 85.5719 72.4856 86.6965 70.3387C87.9233 68.1917 89.0479 66.0447 90.1725 64ZM64 91.7061C61.5463 89.0479 59.1949 86.1853 56.9457 83.2205C59.2971 83.3227 61.6486 83.4249 64 83.4249C66.3514 83.4249 68.7029 83.3227 71.0543 83.2205C68.8051 86.1853 66.4537 89.0479 64 91.7061ZM44.984 76.3706C41.099 75.8594 37.4185 75.246 33.9425 74.4281C35.0671 71.0543 36.2939 67.476 37.8275 63.8978C38.9521 65.9425 40.0767 68.0895 41.3035 70.1342C42.5303 72.3834 43.7572 74.3259 44.984 76.3706ZM37.8275 50.3003C36.2939 46.722 35.0671 43.246 33.9425 39.77C37.4185 38.9521 41.099 38.3387 44.984 37.8275C43.7572 39.77 42.4281 41.8147 41.3035 43.9617C40.0767 46.1086 38.9521 48.2556 37.8275 50.3003ZM64 22.5942C66.4537 25.2524 68.8051 28.115 71.0543 31.0799C68.7029 30.9776 66.3514 30.8754 64 30.8754C61.6486 30.8754 59.2971 30.9776 56.9457 31.0799C59.1949 28.115 61.5463 25.2524 64 22.5942ZM86.6965 44.0639L83.016 37.9297C86.901 38.4409 90.5815 39.0543 94.0575 39.8722C92.9329 43.246 91.7061 46.8243 90.1725 50.4026C89.0479 48.2556 87.9233 46.1086 86.6965 44.0639ZM30.9776 27.5016C29.2396 16.7668 30.6709 9.20128 34.8626 6.7476C35.885 6.13418 37.1118 5.82748 38.4409 5.82748C44.5751 5.82748 52.2428 10.8371 59.9105 18.4026C56.3323 22.2875 52.754 26.7859 49.278 31.6933C43.3482 32.2045 37.7252 33.1246 32.4089 34.2492C31.7955 31.8978 31.3866 29.6486 30.9776 27.5016ZM5.72524 57.1502C5.72524 52.3451 11.5527 47.2332 21.7764 43.4505C23.8211 42.6326 26.0703 41.9169 28.3195 41.3035C29.9553 46.4153 32 51.8339 34.4537 57.2524C32 62.6709 29.853 67.9872 28.3195 73.099C14.2109 69.0096 5.72524 62.8754 5.72524 57.1502ZM34.8626 107.553C30.6709 105.099 29.2396 97.5336 30.9776 86.7987C31.2843 84.6518 31.7955 82.4026 32.4089 80.0511C37.7252 81.278 43.3482 82.0959 49.278 82.607C52.754 87.5144 56.3323 91.9106 59.9105 95.8978C52.345 103.361 44.6773 108.473 38.4409 108.473C37.1118 108.473 35.885 108.166 34.8626 107.553ZM97.0224 86.7987C98.7604 97.5336 97.3291 105.099 93.1374 107.553C92.115 108.166 90.8882 108.473 89.5591 108.473C83.4249 108.473 75.7572 103.463 68.0895 95.8978C71.6677 92.0128 75.246 87.5144 78.722 82.607C84.6518 82.0959 90.2748 81.1757 95.5911 80.0511C96.2045 82.4026 96.6134 84.6518 97.0224 86.7987ZM106.224 70.8498C104.179 71.6677 101.93 72.3834 99.6805 72.9968C98.0447 67.885 96 62.4665 93.5463 57.0479C96 51.6294 98.147 46.3131 99.6805 41.2013C113.789 45.2907 122.275 51.4249 122.275 57.1502C122.275 61.9553 116.345 67.0671 106.224 70.8498Z" fill="white"/>
</svg>
