<svg width="128" height="128" viewBox="0 0 128 128" fill="none" xmlns="http://www.w3.org/2000/svg">
<g clip-path="url(#clip0_2186_42)">
<path fill-rule="evenodd" clip-rule="evenodd" d="M20 0C8.95431 0 0 8.95431 0 20V108C0 119.046 8.95431 128 20 128H108C119.046 128 128 119.046 128 108V20C128 8.95431 119.046 0 108 0H20ZM100.675 81.7551C111.706 86.2281 115.43 91.0251 116.347 96.7361C117.228 101.651 116.132 104.839 115.967 105.317C111.897 119.239 89.2051 119.691 80.1371 110.493C79.8633 110.184 79.6041 109.896 79.3576 109.621C77.879 107.977 76.8567 106.84 75.8771 104.698C78.3186 103.294 79.5234 102.601 80.7273 101.907C81.9 101.23 83.0718 100.552 85.3851 99.2131C87.9321 103.128 90.2881 105.281 94.5241 106.162C100.272 106.864 106.055 104.888 104.758 98.7841C103.985 95.8937 100.153 94.2712 95.6848 92.3792C92.4451 91.0075 88.8708 89.4941 85.8851 87.2531C78.6741 82.4101 76.9841 70.6421 82.9101 63.9181C84.8851 61.4311 88.2531 59.5761 91.7871 58.6831L95.4751 58.2061C102.555 58.0631 106.982 59.9321 110.231 63.5611C111.135 64.4771 111.872 65.4651 113.253 67.6061C112.471 68.1046 111.851 68.4987 111.313 68.8416C109.253 70.152 108.372 70.7125 104.09 73.4851C102.935 70.9981 101.02 69.4391 98.9971 68.7611C95.8561 67.8091 91.8931 68.8441 91.0721 72.1641C90.7861 73.1871 90.8461 74.1391 91.298 75.8291C92.3285 78.1797 95.3238 79.4538 98.4601 80.788C99.1986 81.1021 99.9448 81.4195 100.675 81.7551ZM57.7531 58.9431H69.4621C69.4621 62.5154 69.4685 66.0836 69.475 69.6493C69.4881 76.8329 69.5012 84.0061 69.4611 91.1801C69.4646 92.1519 69.4801 93.11 69.4954 94.053C69.5834 99.4948 69.6633 104.435 67.3911 108.624C65.5471 112.373 62.0251 114.836 57.9431 116.025C51.6711 117.465 45.6741 116.644 41.2121 113.966C38.2251 112.134 35.8931 109.314 34.3101 106.065L43.8301 100.235C43.9057 100.267 44.1157 100.636 44.3998 101.135C44.4313 101.191 44.4638 101.248 44.4971 101.306C45.7101 103.34 46.7571 104.779 48.8161 105.791C50.8391 106.481 55.2781 106.922 56.9911 103.364C57.8264 101.921 57.7833 97.8724 57.7317 93.0251C57.7187 91.7966 57.7051 90.5168 57.7051 89.2151L57.7531 58.9431Z" fill="#F0DB4F"/>
</g>
<defs>
<clipPath id="clip0_2186_42">
<rect width="128" height="128" fill="white"/>
</clipPath>
</defs>
</svg>
