<svg xmlns="http://www.w3.org/2000/svg" version="1.0" preserveAspectRatio="xMidYMid meet" viewBox="13.06 106.1 641.74 159.3">

<g transform="translate(0.000000,372.000000) scale(0.100000,-0.100000)" fill="#ffffff" stroke="none">
<path d="M810 2640 c-52 -10 -111 -23 -130 -30 -108 -40 -245 -127 -316 -202 -52 -54 -135 -179 -158 -238 -39 -98 -45 -118 -60 -205 -18 -99 -20 -169 -7 -230 5 -22 14 -64 20 -94 6 -30 30 -93 53 -140 55 -114 83 -154 166 -238 28 -29 57 -53 62 -53 6 0 10 -4 10 -9 0 -10 119 -83 165 -102 17 -6 39 -16 51 -21 12 -5 32 -8 45 -6 23 3 24 7 27 93 l3 90 -89 0 c-81 0 -92 3 -125 27 -19 15 -45 49 -58 75 -12 27 -44 70 -71 96 -40 39 -47 51 -37 63 15 18 33 18 72 -2 36 -19 65 -46 90 -87 26 -41 90 -77 136 -77 63 0 86 13 101 60 8 24 20 48 27 55 10 11 3 15 -40 25 -82 18 -138 41 -185 74 -23 16 -42 32 -42 36 0 3 -8 15 -17 26 -54 59 -85 214 -63 321 12 64 43 133 60 133 4 0 7 47 6 103 -1 128 6 141 73 131 25 -4 65 -19 90 -34 69 -40 74 -41 183 -28 75 8 126 8 204 0 78 -9 110 -9 129 0 14 6 25 15 25 20 0 4 6 8 13 8 6 0 24 7 39 14 29 16 118 32 118 23 0 -3 7 -32 15 -64 13 -47 13 -67 4 -106 -10 -44 -9 -50 13 -80 42 -55 58 -111 58 -200 0 -117 -34 -211 -102 -280 -36 -37 -132 -83 -192 -92 -59 -8 -81 -16 -69 -24 31 -22 38 -61 43 -220 5 -149 7 -165 25 -177 17 -11 26 -11 55 2 78 34 107 49 148 76 24 15 45 28 48 28 2 0 12 8 22 18 10 9 38 35 63 57 81 73 152 179 196 295 72 187 72 391 0 585 -52 138 -158 277 -272 356 -27 18 -52 36 -55 39 -54 54 -313 130 -435 129 -22 -1 -83 -9 -135 -19z" fill="#ffffff"/>
<path d="M2650 2370 c-64 -11 -147 -57 -202 -112 -27 -26 -48 -50 -48 -54 0 -4 -6 -15 -14 -23 -49 -57 -82 -265 -71 -452 13 -239 89 -372 255 -450 62 -28 128 -39 243 -39 122 1 195 14 272 51 l50 24 3 288 2 287 -192 -2 -193 -3 -3 -94 c-2 -69 1 -97 10 -103 7 -4 44 -8 81 -8 l68 0 -3 -107 -3 -108 -50 -7 c-30 -5 -76 -4 -113 3 -53 10 -70 18 -106 53 -64 62 -86 137 -86 286 0 222 56 320 204 354 79 19 144 17 241 -9 58 -15 75 -7 75 34 0 15 7 48 16 74 9 25 14 54 12 63 -4 19 -64 43 -138 54 -69 10 -250 10 -310 0z" fill="#ffffff"/>
<path d="M4180 1800 l0 -540 115 0 115 0 0 235 0 235 155 0 155 0 0 -235 0 -235 115 0 115 0 0 540 0 541 -112 -3 -113 -3 -3 -202 -2 -203 -155 0 -155 0 0 205 0 205 -115 0 -115 0 0 -540z" fill="#ffffff"/>
<path d="M5840 1800 l0 -540 90 0 c89 0 90 0 90 25 0 14 5 25 10 25 6 0 10 -3 10 -8 0 -4 24 -18 53 -32 64 -30 211 -40 282 -19 53 16 119 83 142 144 38 102 42 366 7 456 -43 109 -131 169 -247 169 -61 0 -138 -17 -179 -40 -16 -9 -18 3 -20 173 l-3 182 -117 3 -118 3 0 -541z m400 20 c62 -17 75 -53 75 -206 0 -112 -3 -135 -18 -151 -27 -30 -84 -43 -140 -33 -91 18 -87 9 -87 195 0 185 -2 181 85 196 22 3 42 7 45 8 3 0 21 -4 40 -9z" fill="#ffffff"/>
<path d="M3338 2313 c-62 -10 -106 -89 -90 -158 29 -123 197 -128 241 -8 13 37 13 48 2 80 -13 38 -54 83 -75 83 -6 0 -20 2 -31 4 -11 2 -32 1 -47 -1z" fill="#ffffff"/>
<path d="M3680 2102 l0 -108 -54 -17 c-30 -10 -56 -23 -59 -30 -3 -10 -3 -79 2 -134 1 -9 19 -13 56 -13 l55 0 0 -185 c0 -161 3 -191 20 -236 24 -60 62 -101 115 -123 45 -19 201 -22 240 -4 24 11 25 15 25 93 l0 83 -64 4 c-98 6 -96 3 -96 199 l0 168 78 3 77 3 3 93 3 92 -80 0 -80 0 -3 108 -3 107 -117 3 -118 3 0 -109z" fill="#ffffff"/>
<path d="M3250 1625 l0 -365 115 0 c111 0 115 1 120 23 3 12 4 175 3 362 l-3 340 -117 3 -118 3 0 -366z" fill="#ffffff"/>
<path d="M5050 1741 c0 -265 7 -330 43 -401 18 -35 35 -51 78 -72 47 -24 65 -28 149 -28 89 0 176 17 204 39 6 5 21 12 34 15 18 6 22 3 22 -13 0 -20 6 -21 80 -21 l80 0 0 365 0 365 -115 0 -115 0 0 -263 c0 -303 7 -283 -105 -294 -60 -5 -65 -4 -89 22 l-26 28 0 253 0 254 -120 0 -120 0 0 -249z" fill="#ffffff"/>
</g>
</svg>