<svg xmlns="http://www.w3.org/2000/svg" version="1.0" width="1196.000000pt" height="208.000000pt" viewBox="0 0 1196.000000 208.000000" preserveAspectRatio="xMidYMid meet">

<g transform="translate(0.000000,208.000000) scale(0.100000,-0.100000)" fill="#ffffff" stroke="none">
<path d="M2843 1887 c-58 -21 -77 -49 -81 -124 -8 -114 38 -163 153 -163 67 0 109 19 135 63 24 39 26 113 5 163 -25 61 -129 91 -212 61z" fill="#ffffff"/>
<path d="M7763 1881 c-51 -24 -73 -63 -73 -131 0 -105 48 -150 158 -150 66 0 117 26 139 70 17 34 16 113 -2 156 -27 66 -137 93 -222 55z" fill="#ffffff"/>
<path d="M10583 1890 c-41 -13 -83 -63 -84 -103 -5 -110 10 -149 66 -173 51 -21 143 -18 182 6 43 26 56 54 57 125 1 66 -15 102 -58 131 -30 19 -120 27 -163 14z" fill="#ffffff"/>
<path d="M1330 1333 c0 -595 4 -642 53 -706 44 -58 105 -81 230 -85 l107 -4 0 106 0 106 -60 0 -60 0 0 565 0 565 -135 0 -135 0 0 -547z" fill="#ffffff"/>
<path d="M7230 1317 c0 -613 1 -632 57 -697 47 -56 95 -73 221 -78 l112 -5 0 107 0 106 -60 0 -60 0 0 565 0 565 -135 0 -135 0 0 -563z" fill="#ffffff"/>
<path d="M9010 1210 l0 -670 135 0 135 0 0 336 0 336 33 33 c56 56 171 71 219 28 51 -46 53 -56 56 -405 l4 -328 129 0 129 0 0 338 c0 367 -6 423 -56 508 -47 81 -129 124 -233 124 -121 0 -209 -50 -256 -145 l-20 -40 -3 278 -2 277 -135 0 -135 0 0 -670z" fill="#ffffff"/>
<path d="M227 1803 c-4 -3 -7 -289 -7 -635 l0 -628 140 0 140 0 0 229 0 229 218 4 218 3 66 33 c112 55 179 153 201 293 22 142 -22 288 -113 373 -63 59 -118 84 -212 96 -83 11 -641 14 -651 3z m628 -247 c54 -23 70 -57 70 -151 0 -153 -22 -168 -257 -173 l-168 -4 0 171 0 171 160 0 c116 0 170 -4 195 -14z" fill="#ffffff"/>
<path d="M4260 1175 l0 -635 430 0 430 0 0 120 0 120 -292 2 -293 3 0 135 0 135 253 3 252 2 0 120 0 120 -255 0 -255 0 0 130 0 130 295 0 295 0 0 125 0 125 -430 0 -430 -1 0 -634z" fill="#ffffff"/>
<path d="M6889 1655 c-32 -17 -59 -71 -59 -118 l0 -35 -114 5 c-187 9 -308 -26 -385 -113 -72 -82 -92 -208 -51 -318 20 -53 78 -118 130 -146 23 -12 22 -13 -29 -32 -96 -36 -143 -107 -127 -193 9 -45 57 -101 102 -117 44 -16 39 -28 -17 -44 -129 -38 -172 -191 -81 -287 66 -70 184 -99 407 -99 283 1 421 51 488 177 17 32 21 58 22 130 0 109 -25 170 -88 216 -71 52 -120 61 -365 66 -191 5 -226 8 -244 23 -42 34 -12 140 35 125 12 -4 68 -9 123 -12 224 -12 386 68 425 211 17 59 14 155 -6 215 -17 53 -87 134 -125 146 -47 15 -13 25 85 25 l105 0 0 95 0 95 -102 0 c-70 -1 -112 -5 -129 -15z m-121 -340 c38 -23 52 -47 59 -104 7 -60 -17 -115 -59 -137 -75 -39 -188 -26 -232 27 -22 26 -26 40 -26 94 0 73 22 109 81 132 44 16 139 10 177 -12z m112 -813 c66 -32 66 -108 0 -146 -30 -18 -56 -21 -184 -24 -164 -4 -221 6 -257 44 -27 29 -29 82 -5 119 l16 25 198 0 c168 0 202 -3 232 -18z" fill="#ffffff"/>
<path d="M2025 1496 c-77 -19 -142 -55 -192 -109 -52 -56 -54 -49 50 -139 l57 -50 41 37 c23 20 56 43 75 51 41 17 150 18 184 1 44 -22 70 -73 70 -138 l0 -59 -117 0 c-250 -1 -387 -66 -428 -204 -46 -154 27 -309 166 -350 161 -48 328 11 381 134 15 34 21 41 28 30 6 -8 10 -22 10 -31 0 -9 13 -34 29 -56 40 -55 89 -73 202 -73 l90 0 -3 103 -3 102 -42 3 -41 3 -4 257 c-3 252 -3 258 -29 312 -44 94 -109 145 -226 175 -68 18 -227 18 -298 1z m285 -628 c0 -40 -6 -84 -13 -97 -20 -41 -74 -66 -143 -66 -98 0 -134 31 -134 118 0 87 48 116 193 117 l97 0 0 -72z" fill="#ffffff"/>
<path d="M3663 1494 c-51 -19 -112 -76 -138 -129 l-20 -40 -3 83 -3 82 -134 0 -135 0 0 -475 0 -475 135 0 135 0 0 328 c0 307 1 329 20 359 28 46 73 67 147 67 56 1 65 -2 93 -29 44 -44 50 -99 50 -431 l0 -294 131 0 130 0 -3 368 c-3 350 -4 369 -25 420 -29 73 -65 116 -120 149 -39 23 -60 27 -132 30 -59 2 -99 -2 -128 -13z" fill="#ffffff"/>
<path d="M5730 1498 c-49 -14 -105 -57 -132 -101 -48 -79 -47 -79 -48 11 l0 82 -135 0 -135 0 0 -475 0 -475 135 0 135 0 0 328 c0 369 0 371 76 407 90 43 177 25 211 -43 16 -33 18 -71 21 -364 l3 -328 130 0 130 0 -3 373 -3 372 -35 70 c-38 76 -94 127 -158 145 -46 12 -145 12 -192 -2z" fill="#ffffff"/>
<path d="M8385 1503 c-118 -26 -199 -83 -241 -168 -39 -81 -38 -181 2 -263 49 -98 130 -138 332 -166 57 -8 114 -22 128 -31 47 -30 41 -97 -11 -131 -19 -13 -47 -17 -100 -17 -84 1 -156 28 -219 83 l-37 33 -75 -74 c-41 -40 -74 -77 -74 -82 0 -16 75 -77 131 -107 142 -76 362 -80 501 -9 55 28 105 75 136 128 24 41 27 56 27 136 0 81 -3 95 -28 138 -50 84 -135 125 -316 152 -122 18 -152 30 -165 66 -24 68 22 112 117 113 76 0 124 -16 182 -59 l44 -34 76 77 75 77 -41 37 c-52 47 -127 83 -203 97 -58 11 -201 13 -241 4z" fill="#ffffff"/>
<path d="M11240 1503 c-14 -3 -57 -20 -97 -39 -164 -78 -241 -240 -231 -486 12 -282 156 -441 413 -455 307 -18 492 192 472 537 -13 230 -125 387 -312 435 -55 14 -186 18 -245 8z m200 -222 c20 -10 44 -36 57 -61 21 -40 23 -56 23 -203 0 -140 -3 -166 -20 -202 -26 -53 -80 -85 -147 -85 -65 0 -112 27 -142 80 -21 38 -25 60 -29 170 -7 189 19 274 92 306 45 19 125 17 166 -5z" fill="#ffffff"/>
<path d="M2780 1015 l0 -475 135 0 135 0 0 475 0 475 -135 0 -135 0 0 -475z" fill="#ffffff"/>
<path d="M7710 1015 l0 -475 135 0 135 0 0 475 0 475 -135 0 -135 0 0 -475z" fill="#ffffff"/>
<path d="M10520 1015 l0 -475 130 0 130 0 0 475 0 475 -130 0 -130 0 0 -475z" fill="#ffffff"/>
<path d="M10090 822 c-52 -26 -72 -72 -67 -155 4 -58 9 -73 32 -97 16 -16 44 -35 63 -41 46 -15 127 -6 160 18 86 63 80 233 -11 276 -46 22 -132 22 -177 -1z" fill="#ffffff"/>
</g>
</svg>