<?xml version="1.0" encoding="UTF-8"?>
<svg id="Vrstva_1" xmlns="http://www.w3.org/2000/svg" viewBox="0 0 1006.13 961.18">
  <defs>
    <style>
      .cls-1 {
        fill: #fff;
      }
    </style>
  </defs>
  <g>
    <path class="cls-1" d="M133.29,641.77c3.16,188.76,123.67,266.45,263.28,266.45,99.9,0,160.22-17.44,212.53-39.65l23.83,23.32c-49.21,22.21-133.22,69.29-255.4,69.29C141.17,961.18,0,860.69,0,629.05s136.45-356.93,360.09-356.93c250.63,0,317.27,163.46,317.27,304.62,0,28.54-3.23,50.76-4.78,65.03H133.29ZM542.52,541.81c1.55-88.79-36.49-226.8-193.54-226.8-141.17,0-203.03,130.06-214.14,226.8h407.68Z"/>
    <g>
      <path class="cls-1" d="M748,946.76c-65.03,0-117.4-18.24-150.72-56.28-39.65-41.27-53.92-109.03-53.92-199.44v-364.35h-118.95v-50.04s86.31,4.33,106.46-13.38c9.36-8.23,12.49-48.29,12.49-48.29V36.49L679.81,0v220.47h199.87v106.23s-179.14-36.23-189.79,10.08c-18.86,82.02-10.08,403.93-10.08,403.93,0,95.19.71,160.75,104.68,160.09"/>
      <path class="cls-1" d="M763.2,899.92c99.9,0,160.67-23.56,212.97-45.77l23.83,23.32c-49.21,22.21-133.22,69.29-255.4,69.29"/>
    </g>
  </g>
  <path class="cls-1" d="M555.45,925.73s45.29-22.28,87.4-1.1c42.11,21.19-31.44-46.07-31.44-46.07l-55.96,47.17Z"/>
</svg>