<svg width="123" height="125" viewBox="0 0 123 125" fill="none" xmlns="http://www.w3.org/2000/svg">
<path fill-rule="evenodd" clip-rule="evenodd" d="M127.914 79.8085C127.427 76.6523 124.776 74.5852 121.692 74.4457C120.576 74.3949 119.442 74.5117 118.329 74.6534C116.985 74.8243 115.657 75.1271 114.315 75.3272C113.388 75.4657 112.448 75.5295 111.523 75.6247L111.5 75.5046C113.228 72.2402 115.029 69.0115 116.665 65.7005C117.918 63.1608 118.991 60.5292 120.1 57.9192C121.934 53.5947 123.4 49.1361 124.614 44.6051C125.777 40.2666 126.772 35.8805 127.084 31.3798C127.21 29.5821 127.296 27.7768 127.286 25.9769C127.278 24.5416 127.123 23.1041 126.979 21.673C126.817 20.0333 126.322 18.4789 125.636 16.983C124.732 15.0122 123.33 13.3952 121.854 11.8592C120.673 10.6294 119.374 9.50879 118.086 8.38928C116.249 6.79168 114.184 5.51642 112.04 4.38393C109.61 3.09279 107.036 2.09431 104.371 1.40939C102.756 0.997282 101.104 0.691175 99.4686 0.364516C98.8802 0.245535 98.2907 0 97.7023 0H86.6251C86.2249 0 85.8279 0.206595 85.4244 0.252025C82.7722 0.547315 80.1514 1.04704 77.6063 1.83556C76.6544 2.13085 75.7848 1.94481 74.8805 1.86152C74.1872 1.7977 73.5057 1.61166 72.8124 1.57705C70.171 1.44509 67.5264 1.25147 64.8861 1.27959C62.3561 1.30555 59.8521 1.72199 57.4032 2.41749C55.3535 2.99942 53.3481 3.71006 51.5115 4.78739C50.7251 5.24817 50.1021 5.16164 49.2887 4.92692C46.5553 4.1384 43.8025 3.39746 41.0259 2.77552C39.2953 2.38828 37.516 2.19575 35.7486 2.01079C34.0526 1.83453 32.3501 1.72844 30.6453 1.69278C28.9818 1.65709 27.3063 1.65817 25.6503 1.80528C23.0126 2.03458 20.4127 2.58414 17.9078 3.44181C15.1337 4.38904 12.5416 5.80287 10.2432 7.62239C7.8993 9.47742 6.01939 11.7424 4.50724 14.3286C2.91397 17.0576 1.8215 19.9792 1.14222 23.0478C0.774462 24.7103 0.541907 26.4193 0.289883 28.1078C0.210922 28.6335 1.08165 29.1591 0 29.6827V37.0314C1.08165 37.5203 0.224983 38.0081 0.287719 38.4981C0.438068 39.676 0.571111 40.8637 0.770135 42.0329C1.0849 43.8837 1.45806 45.7289 1.83881 47.5678C2.36748 50.1378 2.92493 52.7018 3.51104 55.2594C3.93937 57.1198 4.4272 58.9694 4.93774 60.8093C5.71761 63.6195 6.48558 66.435 7.36712 69.2137C8.18593 71.7956 9.12372 74.3408 10.0539 76.8859C11.3422 80.4067 12.8846 83.8139 14.7342 87.0794C16.334 89.9068 18.162 92.5547 20.6141 94.7331C22.2301 96.1685 24.0289 97.2718 26.1229 97.8234C27.7681 98.2561 29.4404 98.308 31.1245 97.9629C33.0433 97.5726 34.8358 96.7139 36.3424 95.4633C36.5187 95.3183 36.7123 95.208 36.9211 95.4741C37.7161 96.4811 38.7804 97.1528 39.8934 97.7336C42.8972 99.2999 46.1703 99.7693 49.4953 99.9608C50.3 100.007 51.1134 99.8915 51.9246 99.8688C53.5049 99.8255 55.0409 99.5173 56.5519 99.0803C57.3437 98.851 58.1171 98.56 58.9229 98.2885C58.9651 99.1463 59.0192 99.9727 59.0441 100.799L59.1566 105.305C59.1771 105.991 59.2042 106.679 59.268 107.361C59.4313 109.121 59.5914 110.882 59.8012 112.637C59.9472 113.846 60.0987 115.065 60.3832 116.245C60.9535 118.627 61.7346 120.954 62.7174 123.198C63.6582 125.376 65.1042 127.298 66.9358 128.806C69.3371 130.792 72.1515 131.639 75.191 131.796C76.4478 131.862 77.7404 131.8 78.9778 131.575C80.9445 131.226 82.8899 130.765 84.8047 130.196C88.6889 129.024 92.0463 126.999 94.5547 123.727C95.9824 121.862 97.1549 119.845 97.9078 117.618C98.5286 115.778 99.1138 113.919 99.5789 112.036C99.9467 110.552 100.128 109.022 100.352 107.506C100.5 106.504 100.589 105.491 100.682 104.481C100.834 102.84 100.988 101.2 101.098 99.5562C101.173 98.4118 101.17 97.262 101.215 96.1155C101.23 95.7661 101.286 95.4189 101.318 95.0706C101.349 94.7483 101.511 94.6369 101.84 94.6423C102.998 94.6596 104.159 94.6899 105.314 94.638C106.609 94.5795 107.915 94.5244 109.189 94.3102C111.005 94.0069 112.806 93.6218 114.587 93.1561C116.688 92.6066 118.616 91.6223 120.471 90.5006C122.632 89.1951 124.602 87.6635 126.201 85.6905C127.59 83.9696 128.249 81.9805 127.914 79.8085ZM124.223 80.8707C124.152 81.8604 123.699 82.7084 123.041 83.4331C119.938 86.8544 116.045 88.9301 111.592 89.9522C109.9 90.3395 108.154 90.5407 106.423 90.7007C104.943 90.8309 103.457 90.8659 101.973 90.8057C100.884 90.7646 99.805 90.5158 98.6931 90.3557C98.5816 91.3724 98.4756 92.4314 98.3469 93.4882L97.8288 97.5389C97.672 98.8229 97.5498 100.111 97.3886 101.394C97.2307 102.639 97.0338 103.88 96.8683 105.125C96.7136 106.284 96.6001 107.449 96.4281 108.606C96.1631 110.38 95.91 112.159 95.5638 113.918C95.1485 116.022 94.5114 118.06 93.4719 119.957C92.2042 122.273 90.4065 124.037 88.1188 125.344C85.7608 126.692 83.1833 127.392 80.57 127.979C78.7204 128.394 76.8145 128.462 74.9411 128.294C71.6918 127.999 68.9185 126.609 66.8222 124.09C64.8212 121.686 63.4669 118.93 62.9824 115.81C62.7561 114.325 62.579 112.833 62.4513 111.336C62.3078 109.673 62.2 108.007 62.1279 106.339C62.032 104.223 61.9609 102.106 61.9148 99.9889C61.8574 97.3864 61.8391 94.784 61.8023 92.1815L61.7958 92.082C60.4718 92.8759 59.1706 93.7456 57.7904 94.4616C56.1775 95.296 54.4119 95.7939 52.6007 95.9251C51.1751 96.0333 49.7311 96.1317 48.3119 96.0181C45.9853 95.831 43.6608 95.4665 41.5776 94.321C40.7328 93.8559 39.8513 93.2902 39.2693 92.5471C37.874 90.7667 38.5425 88.5169 40.6463 87.4342C42.1 86.6846 43.6868 86.372 45.2628 86.0075C46.6344 85.6962 47.9918 85.3249 49.3308 84.8944C50.6526 84.4618 51.4866 83.3899 52.3097 82.3385L53.6142 80.6609C53.0701 80.6035 52.5574 80.5451 52.0447 80.4975C50.4882 80.3504 49.0031 79.9221 47.5829 79.2926C46.3671 78.755 46.3487 78.6966 45.4575 79.6636C43.9691 81.2796 42.5219 82.9334 41.0638 84.5764C39.9908 85.7846 38.9243 87.0004 37.8567 88.2119C36.7988 89.4103 35.808 90.6769 34.6691 91.7921C32.9774 93.4481 30.9385 94.4443 28.5058 94.3318C26.945 94.2605 25.5161 93.7131 24.2311 92.8186C21.5789 90.9711 19.792 88.3871 18.1652 85.6732C16.0809 82.1957 14.4811 78.4911 13.1118 74.6847C12.1642 72.0542 11.2124 69.4214 10.3849 66.753C9.48608 63.8531 8.69755 60.9164 7.92201 57.9808C7.34271 55.7629 6.80826 53.5335 6.319 51.294C5.74851 48.7507 5.22059 46.198 4.73547 43.637C4.41314 41.9075 4.22601 40.153 3.96533 38.4116C3.6138 36.0644 3.5489 33.6956 3.67653 31.3387C3.7901 29.2154 4.09513 27.0975 4.39799 24.9883C4.81767 22.07 5.77926 19.3161 7.16269 16.7158C8.00962 15.1226 9.06099 13.6742 10.2768 12.3287C12.2724 10.1199 14.6877 8.52341 17.3746 7.32494C19.2523 6.48774 21.236 5.98369 23.2577 5.58997C26.2582 5.00588 29.2857 5.02859 32.3143 5.09133C33.6383 5.11837 34.9568 5.35958 36.2796 5.49046C39.1276 5.77385 41.9194 6.37309 44.6754 7.11294C46.684 7.6516 48.6516 8.34926 50.644 8.95499C50.8441 9.01556 51.1372 9.01015 51.3005 8.90307C54.0003 7.14106 56.9511 5.97828 60.0889 5.31307C61.2798 5.06104 62.5086 4.95072 63.7265 4.87284C65.2073 4.77873 66.7 4.6922 68.1775 4.77765C69.9536 4.87933 71.721 5.14109 73.4863 5.38338C74.3429 5.50019 75.179 5.79765 76.0379 5.87877C76.4489 5.91771 76.8848 5.61701 77.3196 5.51642C79.5359 5.0048 81.7425 4.43477 83.9783 4.03023C85.6429 3.72953 87.3433 3.58784 89.0361 3.49049C90.9236 3.38232 92.8251 3.30336 94.7115 3.39422C97.1002 3.51251 99.4733 3.84666 101.802 4.39258C104.697 5.06645 107.475 6.04535 110.115 7.4039C112.088 8.41849 113.964 9.59532 115.652 11.0426C116.759 11.9923 117.891 12.9301 118.891 13.9879C120.124 15.2924 121.382 16.5979 122.155 18.2691C122.737 19.5292 123.152 20.8337 123.267 22.2139C123.41 23.9294 123.583 25.6513 123.567 27.369C123.552 29.012 123.328 30.654 123.169 32.2927C122.807 36.0287 121.995 39.6836 121.009 43.2898C120.183 46.2687 119.249 49.2164 118.208 52.1269C117.257 54.8105 116.161 57.4454 115.052 60.0695C114.236 62.0132 113.349 63.9265 112.393 65.8055C110.579 69.3598 108.693 72.8773 106.511 76.225C106.135 76.8037 105.778 77.3964 105.41 77.987C106.362 78.6295 107.44 78.8556 108.526 78.9724C109.559 79.0849 110.613 79.152 111.645 79.0752C113.296 78.9529 114.943 78.7171 116.585 78.4867C118.211 78.2596 119.806 77.7967 121.476 77.9189C123.144 78.04 124.337 79.3077 124.223 80.8707ZM100.413 77.2439C99.7044 76.3288 98.9819 75.4246 98.2885 74.4987C97.2004 73.045 96.4183 71.4214 95.6331 69.7903C94.8889 68.2446 93.976 66.7811 93.1918 65.2527C91.8235 62.5865 90.4303 59.9289 89.1702 57.2107C87.5856 53.7959 86.3363 50.26 85.9426 46.4775C85.776 44.8766 85.7338 43.2779 86.0572 41.6922C86.5753 39.1601 87.8982 37.1796 90.1221 35.821C92.1848 34.5609 94.4833 34.1542 96.838 34.0266C98.2993 33.9476 99.7671 34.0125 101.284 34.0125L101.233 33.7562C100.29 31.7843 99.408 29.7789 98.3761 27.8536C96.9202 25.1365 95.0576 22.6865 92.983 20.4151C91.446 18.7331 89.7813 17.1723 87.9577 15.7932C86.1643 14.4357 84.2747 13.2232 82.2585 12.2313C79.854 11.0491 77.3499 10.1351 74.7226 9.55206C72.198 8.99176 69.6572 8.64888 67.0678 8.62076C64.859 8.59696 62.6644 8.69647 60.5129 9.19511C57.2658 9.94686 54.2956 11.2838 51.7116 13.4492C50.2819 14.6482 49.0043 16.0177 47.9074 17.5271C46.6137 19.3042 45.5699 21.2231 44.6776 23.2349C43.4532 25.9953 42.6127 28.8682 42.0384 31.8211C41.7506 33.2932 41.5257 34.7783 41.2963 36.2623C41.2163 36.7815 41.2098 37.3126 41.1633 37.9075C41.5624 37.6999 41.8501 37.5398 42.1444 37.397L43.1016 36.9676C46.339 35.4868 49.6932 34.5339 53.2983 34.6431C54.83 34.6896 56.2956 34.9925 57.6574 35.6631C60.2696 36.9514 61.798 39.1417 62.4621 41.914C62.9207 43.8274 63.2344 45.7787 63.5394 47.7246C63.7785 49.2443 64.0229 50.7803 64.051 52.313C64.0911 54.5531 63.9775 56.7975 63.8553 59.0365C63.7503 60.9404 63.3564 62.8172 62.6871 64.6027C61.4756 67.8401 60.1257 71.0244 58.8645 74.2434C58.4481 75.3067 58.1279 76.4078 57.7342 77.5771C58.3421 77.5771 58.8353 77.5727 59.3285 77.5792C59.5211 77.5825 59.7179 77.5879 59.904 77.6322C61.3534 77.974 62.6103 78.6306 63.6411 79.7458C65.0159 81.2298 65.7373 82.9615 65.7741 84.9658C65.7946 86.0767 65.6778 87.1908 65.6832 88.3016C65.706 93.4784 65.7449 98.6552 65.7882 103.831C65.7957 104.677 65.8379 105.524 65.8985 106.368C66.025 108.137 66.1527 109.907 66.3257 111.671C66.4469 112.922 66.6156 114.171 66.8136 115.414C67.0937 117.175 67.8952 118.743 68.8049 120.241C69.588 121.529 70.6058 122.624 71.9471 123.378C74.2261 124.661 76.6804 124.768 79.1541 124.296C80.8253 123.977 82.4661 123.464 84.0886 122.935C85.6841 122.423 87.141 121.552 88.3471 120.389C89.4839 119.287 90.2908 117.943 90.8349 116.46C91.8906 113.584 92.2194 110.556 92.6564 107.551C92.8197 106.426 92.9614 105.298 93.1107 104.171C93.2805 102.888 93.4525 101.606 93.6169 100.324C93.738 99.3691 93.8483 98.4118 93.9652 97.4567C94.1317 96.0852 94.308 94.7147 94.467 93.3421C94.5893 92.281 94.6931 91.2156 94.8013 90.1523C94.9408 88.7938 95.0912 87.4352 95.2112 86.0745C95.3042 85.0415 95.2664 83.9902 95.4492 82.9767C95.7856 81.1184 96.6639 79.537 98.3112 78.5149C99.0002 78.0876 99.778 77.8064 100.543 77.4451L100.413 77.2439ZM38.113 69.6161C37.2915 67.6842 36.7966 65.6292 36.6485 63.5351C36.51 61.5611 36.7448 59.5946 36.947 57.6293C37.1439 55.7256 37.3072 53.8132 37.3645 51.9008C37.4597 48.7576 37.2477 45.6186 37.0974 42.4775C37.0065 40.6073 37.2239 38.7144 37.3905 36.8399C37.5409 35.1515 37.728 33.4587 38.0471 31.7951C38.5825 29.0034 39.2931 26.2517 40.3034 23.5843C41.2628 21.0554 42.365 18.5925 43.9215 16.3751C44.988 14.8543 46.1984 13.433 47.3612 11.9468L47.0161 11.8246C43.2325 10.6229 39.3872 9.68402 35.4327 9.27407C33.5625 9.08046 31.6859 8.96688 29.8103 8.85547C29.2349 8.82086 28.6508 8.89874 28.0732 8.9539C26.6432 9.09019 25.196 9.14427 23.7887 9.41252C21.394 9.8679 19.0965 10.6337 16.9689 11.8809C15.0587 13.0004 13.4547 14.4476 12.1112 16.1837C10.6272 18.1003 9.62886 20.268 8.91172 22.5795C8.06479 25.3063 7.66133 28.1121 7.55209 30.9439C7.4569 33.4263 7.40931 35.9227 7.83764 38.3954C8.15673 40.2363 8.36981 42.0968 8.72135 43.9302C9.20052 46.4299 9.7143 48.9241 10.3081 51.3979C11.1572 54.9392 12.0052 58.4859 13.0112 61.984C13.9738 65.336 15.0598 68.6578 16.2367 71.9395C17.1993 74.6177 18.3123 77.2461 19.4849 79.8399C20.2485 81.5294 21.1733 83.1551 22.1425 84.7376C23.1733 86.4174 24.3458 88.0118 25.9369 89.2308C27.9444 90.77 29.4988 91.009 31.5388 89.3206C32.4127 88.5969 33.1515 87.7035 33.9119 86.8522C35.1201 85.5002 36.2861 84.1113 37.4889 82.7549C39.0206 81.0265 40.5716 79.3164 42.1108 77.5965C42.4364 77.2331 42.749 76.8589 43.0659 76.4911L42.5424 76.0314C40.6415 74.2195 39.1338 72.0358 38.113 69.6161ZM96.1847 18.1631C97.4432 19.6262 98.6374 21.1434 99.7639 22.7103C101.927 25.7487 103.656 29.0293 104.929 32.5393C105.492 34.0861 105.942 35.648 105.741 37.3407C105.602 38.5262 105.613 39.729 105.509 40.921C105.421 41.9129 105.264 42.8994 105.135 43.888C104.943 45.3785 104.664 46.8647 104.58 48.3617C104.502 49.7862 104.584 51.2259 104.674 52.6537C104.764 54.1042 104.96 55.5482 105.093 56.9965C105.244 58.6384 105.446 60.2804 105.492 61.9256C105.53 63.2766 105.41 64.6362 105.292 65.985C105.152 67.6097 104.739 69.1824 104.125 70.6913C103.694 71.7535 103.178 72.7832 102.69 73.8465L102.886 74.0541L103.183 74.2845L103.483 73.748C106.013 69.7661 108.262 65.6121 110.213 61.3166C111.461 58.5438 112.646 55.743 113.768 52.9165C115.525 48.5207 116.915 44.0016 117.99 39.3926C118.472 37.3234 118.841 35.2229 119.169 33.1223C119.424 31.4804 119.637 29.8189 119.685 28.1619C119.735 26.4042 119.638 24.6324 119.476 22.8791C119.355 21.5551 119.028 20.2225 118.198 19.1463C116.865 17.4135 115.425 15.7564 113.654 14.4454C112.164 13.3411 110.679 12.2086 109.079 11.2795C106.543 9.80841 103.797 8.82843 100.929 8.16105C98.1295 7.50882 95.2934 7.22759 92.439 7.1681C90.7559 7.1324 89.0653 7.31304 87.3855 7.47096C85.8636 7.61374 84.3515 7.85711 82.8188 8.0583C84.4629 8.98311 86.0843 9.80516 87.6137 10.7743C90.8295 12.8111 93.711 15.2621 96.1847 18.1631ZM54.406 75.1899C55.4454 71.866 56.8613 68.6924 58.2328 65.4994C59.3448 62.9099 59.9527 60.182 60.1549 57.3805C60.2555 55.9992 60.2274 54.6006 60.1593 53.2151C60.0916 51.6736 59.9501 50.1362 59.7352 48.6083C59.4475 46.6602 59.1198 44.7111 58.659 42.7988C58.1593 40.7296 56.8992 39.2888 54.7402 38.7577C53.4249 38.4343 52.1183 38.4473 50.7889 38.6571C47.5418 39.1687 44.5694 40.365 41.8004 42.1173C41.2433 42.4699 40.9372 42.7544 41.0335 43.5537C41.2369 45.2465 41.2812 46.9664 41.2736 48.6754C41.2628 51.0939 41.1601 53.5125 41.0681 55.93C41.0378 56.7174 40.9243 57.5006 40.8399 58.2847C40.7101 59.4854 40.4602 60.6849 40.4678 61.8834C40.4754 63.1186 40.6019 64.3831 40.9015 65.5794C41.8534 69.3728 43.8696 72.4771 47.174 74.6674C49.2065 76.0141 51.4552 76.6934 53.9235 76.8221C54.0912 76.2553 54.2405 75.7199 54.406 75.1899ZM50.5272 42.6462C50.0923 41.7333 50.3411 40.9773 51.3492 40.6268C51.5947 40.5403 51.8478 40.4483 52.1031 40.4235C52.4536 40.3888 52.8105 40.4148 53.1653 40.4148C54.4438 40.4213 55.6736 40.5998 56.7293 41.4132C57.4064 41.9345 57.5882 42.6268 57.1501 43.3374C56.5281 44.3455 55.5795 44.8517 54.4146 44.9491C52.579 45.1016 51.2908 44.246 50.5272 42.6462ZM101.408 42.3131C101.555 41.0973 101.673 39.8783 101.823 38.6625C101.884 38.1736 101.626 38.0417 101.217 38.0298C99.9272 37.9941 98.6379 37.9486 97.3486 37.9248C95.8948 37.8989 94.48 38.1325 93.1345 38.6852C91.6418 39.2996 90.505 40.2839 90.0409 41.9086C89.7014 43.1066 89.5939 44.3585 89.724 45.597C89.9047 47.512 90.3386 49.3947 91.0144 51.1956C91.9165 53.598 92.8608 55.9992 93.989 58.301C95.5173 61.4172 97.2469 64.4339 98.8704 67.5026C99.3042 68.3214 99.6687 69.1759 100.121 70.1321C101.032 68.2312 101.53 66.1586 101.582 64.051C101.626 62.3096 101.487 60.5605 101.385 58.818C101.321 57.7515 101.171 56.6915 101.067 55.6271C100.922 54.1442 100.703 52.6623 100.669 51.1761C100.636 49.6651 100.743 48.1454 100.873 46.6365C100.995 45.1892 101.234 43.7539 101.408 42.3131ZM98.4994 41.1427C98.0203 42.4656 96.9959 43.2119 95.6677 43.4315C94.4292 43.6349 93.3443 43.1773 92.5374 42.1898C91.963 41.4867 92.1826 40.6538 93.0436 40.179C94.0322 39.6317 95.1193 39.4932 96.401 39.4099C96.7493 39.4738 97.2739 39.5268 97.7726 39.6695C98.4962 39.874 98.7634 40.418 98.4994 41.1427ZM60.1852 81.8777C59.4767 81.299 58.54 81.2655 57.8662 81.9004C57.03 82.69 56.2945 83.5932 55.559 84.4834C54.7099 85.5121 53.9138 86.5818 52.8181 87.379C51.2237 88.5374 49.3655 89.0177 47.4974 89.472C46.0123 89.8333 44.5207 90.1686 43.0313 90.5158L43.0129 90.7083C43.4553 90.9127 43.8837 91.168 44.3444 91.314C46.6159 92.0333 48.9263 92.3914 51.3265 92.188C53.0593 92.0409 54.7099 91.6634 56.274 90.9214C58.4264 89.9014 60.0825 88.2854 61.4908 86.4055C61.7266 86.0918 61.8336 85.6278 61.8618 85.2233C61.958 83.7944 61.2322 82.7322 60.1852 81.8777ZM116.162 82.4467C114.334 82.6424 112.504 82.8501 110.67 82.955C109.785 83.0059 108.888 82.8371 107.994 82.7647C106.496 82.6435 105.034 82.3104 103.767 81.51C103.034 81.0481 102.425 80.9962 101.646 81.2579C100.534 81.6322 99.6265 82.2011 99.3583 83.4061C99.1755 84.2206 99.1095 85.0643 99.0359 85.8982C99.0219 86.0453 99.2058 86.3157 99.3464 86.3525C100.204 86.5786 101.066 86.8457 101.943 86.9247C103.021 87.022 104.118 86.9907 105.202 86.9366C106.374 86.8782 107.553 86.8025 108.707 86.6078C111.427 86.1513 114.059 85.4071 116.396 83.8647C117.239 83.3077 118.074 82.7387 118.911 82.1752L118.842 82.0562C117.949 82.1892 117.059 82.3515 116.162 82.4467Z" fill="white"/>
</svg>
